<svg width="60" height="60" viewBox="0 0 60 60" fill="none" xmlns="http://www.w3.org/2000/svg"><rect width="60" height="60" rx="30" fill="#25ADB4" fill-opacity=".1"/><path fill-rule="evenodd" clip-rule="evenodd" d="M28.553 12L13.499 24.795l1.247 1.466 13.807-11.736L42.36 26.262l1.246-1.467L28.553 12zM16.77 27.693v12.506h16.917v-1.924H18.695V27.693H16.77zM40.421 28.175v3.848h-1.924v-3.848h1.924zM21.34 12.3h-4.57v5.291h1.924v-3.367h2.646V12.3z" fill="#25ADB4"/><path fill-rule="evenodd" clip-rule="evenodd" d="M32.402 29.617h-7.696v9.62h1.924v-7.696h3.848v7.696h1.924v-9.62zM36.357 43.406h4.33v1.924h-2.405v2.405h-1.925v-4.33zM50.254 34.267v4.33h-4.33v-1.925h2.406v-2.405h1.924z" fill="#25ADB4"/><path fill-rule="evenodd" clip-rule="evenodd" d="M47.883 44.515a5.772 5.772 0 001.193-3.514H51a7.697 7.697 0 01-14.362 3.848l1.666-.962a5.772 5.772 0 009.58.628zM45.514 35.667a5.772 5.772 0 00-7.982 5.334h-1.924a7.696 7.696 0 0114.362-3.848l-1.666.962a5.772 5.772 0 00-2.79-2.448z" fill="#25ADB4"/></svg>
