<svg width="335" height="164" viewBox="0 0 335 164" fill="none" xmlns="http://www.w3.org/2000/svg"><path fill="#F5F5F5" d="M0 0h335v164H0z"/><path stroke="#B9B9B9" d="M13 131.5h309"/><path d="M207.115 37.444h-1.794c.039.234.091.871.091 1.144 0 .221 0 .598-.013 1.053-.26.013-.52.026-.754.026-.468 0-1.027-.013-1.794-.104l.026 1.573c.442.052.949.065 1.82.065.208 0 .442-.013.689-.026v1.092c0 .299 0 .611.013.923-1.599.689-2.899 1.872-2.899 3.003 0 1.378 1.781 2.47 3.042 2.47.858 0 1.43-.429 1.43-2.041 0-.442-.026-1.456-.052-2.483a8.765 8.765 0 012.444-.364c1.131 0 1.911.52 1.911 1.404 0 .949-.832 1.469-1.885 1.664-.455.078-1.014.091-1.599.091l.598 1.677c.533-.039 1.105-.078 1.703-.208 2.067-.52 2.873-1.677 2.873-3.211 0-1.794-1.573-2.834-3.575-2.834-.715 0-1.612.117-2.496.338v-.481c0-.377 0-.78.013-1.17.845-.104 1.742-.234 2.483-.403l-.039-1.612c-.676.195-1.534.364-2.392.468l.039-.923c.026-.338.078-.897.117-1.131zm3.705 1.404l-.715 1.261c.806.39 2.509 1.365 3.133 1.898l.78-1.326c-.689-.494-2.197-1.352-3.198-1.833zm-6.721 7.28c0-.455.533-.988 1.326-1.417.026.702.039 1.3.039 1.625 0 .442-.182.546-.416.546-.338 0-.949-.351-.949-.754zm18.668-7.891h-2.392V37.08h-1.495v1.157h-2.379v1.339h6.266v-1.339zm-1.937 7.202v1.716h-2.431v-1.716h2.431zm-3.861 3.705h1.43v-.65h2.431v.598h1.508V44.1h-5.369v5.044zm3.744-9.529a13.613 13.613 0 01-.533 1.963l1.053.273h-3.406l1.222-.286a6.546 6.546 0 00-.533-1.898l-1.261.26c.221.598.416 1.404.455 1.924h-1.482v1.404h6.682v-1.404h-1.508c.221-.507.494-1.209.767-1.924l-1.456-.312zm6.5-1.937l-.234.052h-3.666v11.401h1.508v-9.945h1.573c-.312.988-.728 2.314-1.105 3.237 1.04 1.014 1.326 1.95 1.326 2.652 0 .442-.078.741-.312.884-.13.065-.299.104-.481.104-.195.013-.442 0-.728-.013.247.429.377 1.092.377 1.508.364.013.741.013 1.04-.026.325-.052.637-.156.884-.325.494-.351.702-.988.702-1.937 0-.858-.195-1.872-1.3-3.042.52-1.105 1.092-2.6 1.547-3.848l-1.131-.702zm11.765 4.992l-.559.338c.208.143.429.312.637.494-.871.026-1.742.052-2.561.078.208-.286.429-.598.637-.91h1.846zm1.196-3.835v.806h-6.76v-.806h6.76zm-1.859 8.762V46.7h3.12v-1.222h-3.12v-.806l1.989-.078c.234.221.442.442.598.637l1.287-.793c-.455-.52-1.287-1.209-2.054-1.768h1.95v-1.209h-8.671V40.889h8.32v-3.302h-9.867v3.757c0 2.067-.104 4.992-1.391 6.994.377.143 1.079.533 1.378.793 1.118-1.742 1.456-4.342 1.534-6.461h2.028c-.182.325-.377.663-.559.962l-1.365.026.065 1.209c.923-.039 2.041-.078 3.263-.13v.741h-3.068V46.7h3.068v.897h-3.939v1.222h9.477v-1.222h-4.043zm12.103-8.697h4.914v1.261h1.365v-2.574h-7.592v2.652h1.313V38.9zm.65.312c-.078 1.469-.325 2.21-2.223 2.639.26.26.611.767.741 1.092 2.34-.598 2.769-1.755 2.886-3.731h-1.404zm-2.379 3.224l-1.053.299v-1.872h1.183v-1.417h-1.183v-2.444h-1.404v2.444h-1.365v1.417h1.365v2.249c-.585.143-1.131.286-1.573.377l.338 1.482c.377-.104.806-.221 1.235-.351v2.873c0 .169-.065.221-.221.221-.156.013-.611.013-1.079-.013a5.75 5.75 0 01.39 1.43c.858.013 1.404-.039 1.807-.286.39-.247.507-.637.507-1.352v-3.289c.416-.117.832-.247 1.248-.377l-.195-1.391zm8.034 2.639v-1.378h-3.133v-1.235c.221.13.533.182.975.182h1.027c.858 0 1.209-.351 1.339-1.716-.364-.065-.936-.273-1.196-.481-.026.858-.078.975-.312.975h-.624c-.234 0-.286-.026-.286-.351v-1.872h-1.378v1.885c0 .676.078 1.092.39 1.326h-1.469v1.287h-3.081v1.378h2.249c-.728 1.053-1.846 1.976-3.042 2.47.338.286.767.832.988 1.183 1.105-.572 2.119-1.495 2.886-2.587v2.977h1.534v-2.964c.702 1.001 1.573 1.898 2.483 2.457.234-.364.702-.91 1.04-1.183-1.001-.507-2.002-1.404-2.704-2.353h2.314zm6.747-7.384l-2.093-.026c.117.52.169 1.144.169 1.755 0 1.118-.13 4.537-.13 6.279 0 2.223 1.378 3.159 3.51 3.159 2.964 0 4.81-1.742 5.642-2.99l-1.183-1.43c-.936 1.417-2.301 2.652-4.446 2.652-1.014 0-1.794-.429-1.794-1.742 0-1.612.104-4.524.156-5.928.026-.52.091-1.183.169-1.729zm9.98 1.391l.169 1.781c1.508-.325 4.16-.611 5.382-.741-.884.663-1.937 2.145-1.937 4.017 0 2.821 2.574 4.277 5.304 4.459l.611-1.781c-2.21-.117-4.212-.884-4.212-3.029 0-1.547 1.183-3.224 2.756-3.64.689-.169 1.807-.169 2.509-.182l-.013-1.664c-.923.039-2.34.117-3.679.234-2.379.195-4.524.39-5.616.481a19.66 19.66 0 01-1.274.065zm8.723 2.158l-.962.403c.416.585.689 1.092 1.014 1.807l.988-.442c-.247-.507-.715-1.3-1.04-1.768zm1.456-.598l-.949.442c.416.572.715 1.053 1.066 1.755l.975-.468a19.445 19.445 0 00-1.092-1.729zm-65.544 20.679a5.665 5.665 0 01-1.131 1.69 5.47 5.47 0 01-1.17-1.69h2.301zm-3.809-1.378v-1.261h1.651v1.404h-1.651v-.143zm4.693.104l-.26.039h-1.404v-1.404h1.534c-.091.364-.195.702-.286.962l1.287.208c.247-.585.546-1.495.754-2.327l-1.066-.169-.221.039h-2.002v-1.053h3.471v-1.3h-4.433v-1.04h-1.638v1.04h-4.056v3.497c-.117-.663-.403-1.56-.728-2.275l-1.105.455c.325.845.624 1.937.689 2.613l1.144-.52v.416c0 .338 0 .676-.013 1.04-.741.377-1.443.715-1.95.936l.429 1.391c.455-.26.91-.533 1.378-.806-.182 1.196-.585 2.392-1.417 3.341.286.195.858.728 1.079 1.027 1.638-1.833 1.924-4.849 1.924-6.929v-2.886h3.848v1.053h-3.016v2.535c0 1.612-.13 3.848-1.443 5.408.312.156.91.572 1.157.832 1.079-1.326 1.482-3.211 1.599-4.849h.117c.39 1.014.884 1.859 1.508 2.574a8.075 8.075 0 01-2.431.975c.273.299.611.871.754 1.261 1.027-.299 1.963-.715 2.756-1.261.806.572 1.781.988 2.964 1.261.195-.416.598-1.001.91-1.3-1.066-.195-1.963-.52-2.717-.962.832-.897 1.456-2.041 1.82-3.523l-.936-.299zm7.267-4.42c0 .143-.026.507-.052 1.001-.559.078-1.131.143-1.508.169a11.17 11.17 0 01-1.131.013l.169 1.664a136.66 136.66 0 012.366-.312 20.56 20.56 0 01-.065.923c-.741 1.092-2.041 2.808-2.782 3.718l1.027 1.417c.455-.611 1.092-1.56 1.638-2.379a189.122 189.122 0 01-.052 2.86c0 .208-.013.663-.039.962h1.794a16.793 16.793 0 01-.091-1.001c-.078-1.222-.078-2.314-.078-3.38 0-.338.013-.689.026-1.053 1.066-1.17 2.47-2.366 3.432-2.366.546 0 .884.325.884.962 0 1.183-.468 3.094-.468 4.498 0 1.261.65 1.963 1.625 1.963a3.465 3.465 0 002.444-.962l-.208-1.833c-.598.598-1.209.936-1.69.936-.325 0-.494-.247-.494-.585 0-1.339.429-3.25.429-4.602 0-1.092-.637-1.924-2.041-1.924-1.261 0-2.756 1.053-3.783 1.95.013-.104.013-.195.026-.286.221-.338.481-.767.663-1.001l-.481-.624c.091-.806.208-1.469.286-1.833l-1.898-.065c.065.403.052.793.052 1.17zm16.9-1.092l-1.794-.182c-.026.676-.169 1.456-.351 2.171a12.18 12.18 0 01-1.183.052c-.481 0-1.17-.026-1.729-.091l.117 1.508a23.1 23.1 0 001.625.052c.221 0 .442 0 .676-.013-.572 1.404-1.625 3.315-2.652 4.589l1.573.806c1.053-1.469 2.158-3.744 2.782-5.564.871-.13 1.677-.299 2.275-.455l-.052-1.508c-.507.156-1.118.299-1.755.416.195-.702.364-1.365.468-1.781zm-.676 8.996c0-.455.481-.793 1.235-.793.364 0 .715.052 1.053.13v.26c0 .715-.273 1.209-1.17 1.209-.715 0-1.118-.325-1.118-.806zm3.718-4.953h-1.625c.026.793.091 1.95.143 2.912-.299-.026-.585-.052-.897-.052-1.807 0-2.873.975-2.873 2.249 0 1.43 1.274 2.145 2.886 2.145 1.846 0 2.509-.936 2.509-2.145v-.13c.715.429 1.3.975 1.755 1.391l.871-1.391c-.663-.598-1.573-1.248-2.691-1.664-.026-.65-.065-1.274-.078-1.651-.013-.572-.039-1.118 0-1.664zm2.236.689l.923-1.365c-.663-.481-2.275-1.365-3.211-1.768l-.832 1.287c.884.403 2.366 1.248 3.12 1.846zm6.266-3.562l-2.002-.026c.078.403.104.962.104 1.326 0 .793.013 2.314.143 3.51.364 3.484 1.599 4.771 3.029 4.771 1.04 0 1.859-.793 2.717-3.055l-1.3-1.586c-.247 1.04-.767 2.561-1.378 2.561-.819 0-1.209-1.287-1.391-3.159-.078-.936-.091-1.911-.078-2.756 0-.364.065-1.118.156-1.586zm6.5.299l-1.651.533c1.417 1.612 2.106 4.771 2.314 6.864l1.703-.663c-.143-1.989-1.131-5.239-2.366-6.734zm10.257 5.655h1.326l.351-4.446.065-1.937h-2.158l.065 1.937.351 4.446zm.663 3.458c.65 0 1.144-.468 1.144-1.144 0-.689-.494-1.157-1.144-1.157-.65 0-1.144.468-1.144 1.157 0 .676.481 1.144 1.144 1.144z" fill="#25ADB4"/><path d="M52.662 138.002c-.546.845-1.625 1.924-2.548 2.574.234.273.611.819.806 1.131 1.079-.793 2.288-2.054 3.107-3.172l-1.365-.533zm.234 2.769c-.676 1.261-1.82 2.522-2.899 3.341.247.325.663 1.105.806 1.443a11.51 11.51 0 001.014-.962v5.564h1.443v-7.306c.364-.52.702-1.053.988-1.573l-1.352-.507zm6.253 5.083h2.548v-1.417h-2.548v-2.015h2.899v-1.469h-1.56c.403-.663.871-1.573 1.3-2.444l-1.508-.52c-.273.819-.793 1.898-1.209 2.587l1.001.377h-3.107l.832-.403c-.273-.689-.845-1.703-1.378-2.47l-1.274.559c.442.689.936 1.625 1.222 2.314h-1.781v1.469h3.055v5.408c-.533-.377-.975-.936-1.3-1.755.117-.676.195-1.391.247-2.158l-1.547-.104c-.104 2.262-.481 4.186-1.677 5.317.351.234.962.78 1.183 1.053.585-.611 1.014-1.365 1.326-2.249 1.027 1.573 2.483 2.002 4.264 2.002h1.82c.065-.39.247-1.105.455-1.443-.455 0-1.807.013-2.158 0-.377 0-.754-.026-1.105-.078v-2.561zm10.582-4.966v2.743h-2.249l1.235-.481c-.169-.637-.65-1.56-1.105-2.262h2.119zm3.835 0c-.26.754-.728 1.729-1.105 2.366l1.092.377h-2.184v-2.743h2.197zm2.795 4.225v-1.482h-2.522c.416-.585.91-1.456 1.365-2.301l-1.495-.442h2.158v-1.482h-4.498v-1.417h-1.638v1.417H65.35v1.482h2.21l-1.339.507c.416.702.832 1.612.975 2.236h-2.457v1.482h4.082c-1.131 1.339-2.808 2.574-4.446 3.25.364.312.845.923 1.092 1.3 1.56-.78 3.081-2.054 4.264-3.51v3.965h1.638v-3.991c1.17 1.482 2.691 2.782 4.251 3.562.234-.377.728-.988 1.079-1.3-1.625-.676-3.289-1.924-4.407-3.276h4.069zm14.04-.689c0-2.834-2.028-5.07-5.252-5.07-3.367 0-5.967 2.561-5.967 5.564 0 2.197 1.196 3.783 2.639 3.783 1.417 0 2.535-1.612 3.315-4.238.377-1.222.598-2.418.78-3.523 1.755.299 2.73 1.638 2.73 3.432 0 1.898-1.3 3.094-2.964 3.484a9.999 9.999 0 01-1.209.208l.975 1.547c3.276-.507 4.953-2.444 4.953-5.187zm-9.555.325c0-1.43 1.157-3.328 3.302-3.77a19.513 19.513 0 01-.689 3.146c-.533 1.755-1.04 2.574-1.586 2.574-.507 0-1.027-.637-1.027-1.95zm23.361-4.407l-1.274-.819c-.351.091-.767.104-1.027.104H95.9c-.429 0-1.17-.065-1.56-.104v1.833c.338-.026.962-.052 1.547-.052h6.058c-.169 1.105-.663 2.587-1.521 3.666-1.053 1.313-2.522 2.444-5.096 3.055l1.417 1.547c2.314-.741 4.043-2.028 5.226-3.588 1.079-1.443 1.651-3.458 1.95-4.732.065-.273.169-.65.286-.91zm4.381-.559c.026.364.026.897.026 1.261v6.357c0 .624-.039 1.755-.039 1.82h1.794c0-.039 0-.338-.013-.702h6.266c0 .377-.013.676-.013.702h1.794c0-.052-.026-1.3-.026-1.807v-6.37c0-.39 0-.871.026-1.261-.468.026-.962.026-1.287.026h-7.15c-.351 0-.845-.013-1.378-.026zm1.768 1.677h6.279v5.395h-6.279v-5.395zm12.09 1.521v2.041a30.806 30.806 0 012.093-.065h6.981c.546 0 1.209.052 1.521.065v-2.041c-.338.026-.91.078-1.521.078h-6.981c-.676 0-1.625-.039-2.093-.078z" fill="#666"/><path fill="#C4C4C4" d="M26 109h132v22H26z"/><path d="M58.03 121.308v-1.378h2.886v1.378H58.03zm-4.446 0v-1.378h2.821v1.378h-2.821zm2.821-4.108v1.313h-2.821V117.2h2.821zm4.511 0v1.313H58.03V117.2h2.886zm-2.886-1.482v-1.742h-1.625v1.742h-4.368v7.761h1.547v-.689h2.821v3.328h1.625v-3.328h2.886v.624h1.612v-7.696H58.03zm14.183 1.508c-.403 2.483-1.404 4.42-3.224 5.499.364.273.962.871 1.196 1.17 1.417-.988 2.405-2.418 3.055-4.277.572 1.82 1.521 3.315 3.12 4.264a6.927 6.927 0 011.209-1.183c-2.704-1.352-3.484-4.485-3.679-8.164h-3.575v1.456h2.262c.039.442.091.884.143 1.313l-.507-.078zm-3.224-.975c-.442-.611-1.391-1.417-2.171-1.963l-1.144.936c.767.572 1.69 1.43 2.093 2.054l1.222-1.027zm-.325 2.782h-3.003v1.417h1.495v2.743c-.572.442-1.222.871-1.781 1.196l.754 1.612c.715-.546 1.287-1.053 1.859-1.56.845 1.014 1.911 1.378 3.51 1.443 1.547.065 4.16.039 5.72-.039a8.097 8.097 0 01.481-1.56c-1.729.13-4.654.169-6.175.104-1.352-.052-2.327-.403-2.86-1.274v-4.082zm20.033 3.9v.468h-5.564v-.468h5.564zm-5.564 1.872v-.507h5.564v.507h-5.564zm-1.495 1.365h1.495v-.39h5.564v.377h1.56v-4.212h-8.619v4.225zm4.927-8.957h2.093v.494h-2.093v-.494zm0-1.547h2.093v.481h-2.093v-.481zm3.627 2.938v-1.391h1.482v-1.066h-1.482v-1.378h-3.627v-.819h-1.547v.819h-3.666v.897h3.666v.481h-4.992v1.066h4.992v.494h-3.809v.897h3.809v.455h-4.095v.936h4.095v.468h-5.005v1.079h11.661v-1.079h-5.109v-.468h4.16v-.936h-4.16v-.455h3.627zm9.282-2.691v1.664c1.638.156 3.991.143 5.59 0V115.9c-1.404.169-3.991.234-5.59.013zm1.04 5.551l-1.495-.143c-.143.663-.221 1.183-.221 1.69 0 1.339 1.079 2.132 3.315 2.132 1.469 0 2.509-.091 3.354-.247l-.026-1.755a15.367 15.367 0 01-3.263.338c-1.326 0-1.82-.351-1.82-.923 0-.351.052-.663.156-1.092zm-3.042-6.422l-1.82-.156c-.013.416-.091.91-.13 1.274-.143 1.001-.546 3.198-.546 5.148 0 1.768.247 3.354.507 4.251l1.508-.104a8.54 8.54 0 01-.026-.533c0-.13.026-.416.065-.611.143-.689.572-2.106.936-3.185l-.806-.637c-.182.429-.39.884-.585 1.326a6.272 6.272 0 01-.052-.845c0-1.3.455-3.9.624-4.771.052-.234.221-.884.325-1.157zm15.743-.65h-4.134v1.17h4.134v-1.17zm-1.43 8.346v1.495h-1.482v-1.495h1.482zm1.352-1.222h-4.173v4.433h1.339v-.507h2.834v-3.926zm-4.134-.637h4.173v-1.157h-4.173v1.157zm0-1.755h4.173v-1.183h-4.173v1.183zm-.624-1.768h5.317v-1.222h-5.317v1.222zm8.138 7.202c-.611 0-.715-.091-.715-.637v-3.627h2.535v.637h1.547v-6.292h-5.681v1.469h4.134v2.717h-4.108v5.096c0 1.664.507 2.093 2.119 2.093h2.145c1.469 0 1.885-.624 2.08-2.782-.416-.091-1.092-.351-1.43-.598-.091 1.625-.182 1.924-.767 1.924h-1.859zm8.736-9.841v1.573h2.964c.039.442.091.91.182 1.404l-.793-.143c-.715 3.419-2.262 5.928-4.966 7.293.403.299 1.131.936 1.417 1.261 2.262-1.352 3.822-3.51 4.797-6.422.715 2.327 2.093 4.784 4.784 6.409.273-.403.91-1.079 1.248-1.352-4.784-2.821-5.135-7.566-5.135-10.023h-4.498z" fill="#666"/><path fill="#C4C4C4" d="M26 86h132v22H26z"/><path d="M82.08 94.655h2.964c-.065 1.599-.507 3.523-2.964 4.797v-4.797zm9.126-1.508h-4.55v-2.158h-1.599v2.158h-4.524v10.01h1.547v-3.666c.377.286.858.832 1.079 1.144 1.417-.832 2.288-1.898 2.795-2.99.949.949 1.924 2.002 2.444 2.717l1.274-1.001c-.702-.897-2.106-2.236-3.211-3.237.104-.507.156-.988.182-1.469h3.029v6.669c0 .234-.078.299-.325.312-.247 0-1.118.013-1.885-.026.221.403.455 1.092.507 1.534 1.157 0 1.989-.026 2.522-.273.546-.247.715-.676.715-1.508v-8.216zm6.227 3.718h5.434v.806h-5.434v-.806zm0-2.067h5.434v.806h-5.434v-.806zm0-2.054h5.434v.806h-5.434v-.806zm5.46 8.814c-.494 0-.572-.052-.572-.468v-2.067h2.119v-7.631h-8.502v7.631h1.586c-.221 1.417-.78 2.288-3.445 2.782.299.325.715.962.858 1.378 3.211-.728 3.978-2.093 4.251-4.16h1.573v2.08c0 1.456.364 1.924 1.911 1.924h1.716c1.287 0 1.69-.533 1.859-2.587-.403-.104-1.092-.364-1.417-.611-.065 1.508-.143 1.729-.585 1.729h-1.352z" fill="#666"/><path fill="#C4C4C4" d="M26 63h132v22H26z"/><path d="M67.819 78.298h-4.615V76.53h4.615v1.768zm-1.703-7.137h-1.573v4.004h-2.847v4.966h1.508v-.481h4.615v.468h1.586v-4.953h-3.289v-1.417h4.056v-1.365h-4.056v-1.222zm-.507-1.664v-1.495h-1.612v1.495h-4.628v3.276c0 1.872-.091 4.602-1.157 6.461.364.169 1.053.611 1.339.871 1.17-2.028 1.365-5.239 1.365-7.332v-1.807h9.425v-1.469h-4.732zm10.79 7.514v1.17h-1.794v-1.17h1.794zm-3.133 3.094h1.339v-.663h1.794v.403h1.391v-4.082h-4.524v4.342zm9.854-6.929v.832h-1.079v-.832h1.079zm-1.079 2.925v-.845h1.079v.845h-1.079zm-2.379 0v-.845h1.001v.845h-1.001zm1.001-2.925v.832h-1.001v-.832h1.001zm3.978-2.158v-1.326h-.767l.676-.559c-.299-.351-.936-.832-1.43-1.131l-.91.676c.416.286.897.676 1.222 1.014h-1.391v-1.703h-1.378v1.703h-2.574v.52c-.481-.689-1.378-1.586-2.132-2.21h-1.313c-.429.962-1.17 2.145-2.236 3.042.299.195.715.663.949.975v1.027h1.456v.884h-1.885v1.248h5.07V73.93h-1.781v-.884h1.495v-1.183h-1.495v-1.105h-1.404v1.105h-1.196c.845-.819 1.456-1.703 1.924-2.47a12.03 12.03 0 011.677 2.119l.871-1.092v.598h2.574v.858h-2.34v8.203h1.339v-2.743h1.001v2.678h1.378v-2.678h1.079v1.287c0 .117-.039.156-.156.156a6.733 6.733 0 01-.741 0c.182.351.351.936.39 1.313.624 0 1.066-.039 1.417-.26.364-.234.442-.585.442-1.183v-6.773h-2.431v-.858h2.6zm2.34 4.108l1.586 1.625c.221-.338.52-.806.819-1.235.559-.741 1.482-2.028 2.002-2.678.377-.481.624-.546 1.079-.039.611.689 1.586 1.924 2.392 2.886.819.962 1.924 2.223 2.86 3.107l1.339-1.56c-1.235-1.105-2.34-2.275-3.172-3.185-.767-.832-1.807-2.171-2.691-3.029-.949-.923-1.794-.832-2.704.195-.806.936-1.807 2.275-2.405 2.899a8.7 8.7 0 01-1.105 1.014zm19.5-4.238v2.743h-2.249l1.235-.481c-.169-.637-.65-1.56-1.105-2.262h2.119zm3.835 0c-.26.754-.728 1.729-1.105 2.366l1.092.377h-2.184v-2.743h2.197zm2.795 4.225v-1.482h-2.522c.416-.585.91-1.456 1.365-2.301l-1.495-.442h2.158v-1.482h-4.498v-1.417h-1.638v1.417H102.1v1.482h2.21l-1.339.507c.416.702.832 1.612.975 2.236h-2.457v1.482h4.082c-1.131 1.339-2.808 2.574-4.446 3.25.364.312.845.923 1.092 1.3 1.56-.78 3.081-2.054 4.264-3.51v3.965h1.638v-3.991c1.17 1.482 2.691 2.782 4.251 3.562.234-.377.728-.988 1.079-1.3-1.625-.676-3.289-1.924-4.407-3.276h4.069zm11.908 3.185h-4.615V76.53h4.615v1.768zm-1.703-7.137h-1.573v4.004h-2.847v4.966h1.508v-.481h4.615v.468h1.586v-4.953h-3.289v-1.417h4.056v-1.365h-4.056v-1.222zm-.507-1.664v-1.495h-1.612v1.495h-4.628v3.276c0 1.872-.091 4.602-1.157 6.461.364.169 1.053.611 1.339.871 1.17-2.028 1.365-5.239 1.365-7.332v-1.807h9.425v-1.469h-4.732z" fill="#666"/><path fill="#C4C4C4" d="M26 40h132v22H26z"/><path d="M68.664 54.57v-2.912h5.772v2.912h-5.772zm5.772-7.241v2.795h-5.772v-2.795h5.772zm-7.371-1.56v11.206h1.599v-.845h5.772v.819H76.1v-11.18h-9.035zm22.711 2.795h-3.029V46.77h3.029v1.794zm1.508-3.094h-5.967v4.394h5.967V45.47zm-6.344 6.682c-.247-.286-1.313-1.417-1.664-1.703v-.377h1.391v-1.443h-1.391v-1.833a13.555 13.555 0 001.547-.494l-1.027-1.183c-1.001.455-2.6.832-4.03 1.079.169.312.351.832.429 1.183.507-.065 1.04-.156 1.586-.26v1.508h-1.859v1.443h1.651c-.481 1.261-1.196 2.639-1.924 3.484.247.39.572 1.027.715 1.469.507-.65 1.001-1.573 1.417-2.574v4.667h1.495v-5.07c.312.468.624.975.78 1.313l.884-1.209zm4.082 3.341v-1.144h2.301v-1.3h-2.301V51.97h2.613v-1.326h-6.734v1.326h2.587v1.079h-2.275v1.3h2.275v1.144h-3.094v1.352h7.514v-1.352h-2.886zm8.996-10.101H94.69v1.17h3.328v-1.17zm.351 1.742h-4.29v1.222h4.29v-1.222zm-.312 1.807h-3.445v1.183h3.445v-1.183zm-3.445 2.938h3.445v-1.157h-3.445v1.157zm6.045-2.119v1.131h3.38V49.76h-1.118v-.884h1.027v-1.118h-1.027v-.845h-1.209v.845h-1.001v1.118h1.001v.884h-1.053zm2.158 2.912v1.222h-.988v-1.222h.988zm1.118 2.327v-3.445h-3.198v3.887h1.092v-.442h2.106zm-7.137.221h-1.027v-1.495h1.027v1.495zm9.061-9.763h-6.981v4.836c0 1.794-.065 4.147-.845 5.837v-3.614h-3.458v4.433h1.196v-.52h2.262c.338.169.858.533 1.079.767 1.014-1.872 1.17-4.836 1.17-6.903V46.77h4.147v8.606c0 .195-.052.247-.234.247-.195 0-.793.013-1.326-.013.195.403.39 1.092.429 1.508.923 0 1.56-.026 2.002-.286.442-.247.559-.689.559-1.443v-9.932zm9.321 9.581h3.354v-1.131h-3.354v-.611h4.394v-1.222h-10.244v1.222h4.342v2.379h-1.729v-1.95h-1.482v1.95h-1.898v1.261h11.817v-1.261h-5.2v-.637zm-.702-4.537c-.26-.156-1.079-.572-1.638-.858h1.625V48.33c.273.273.585.624.728.832.208-.182.39-.39.585-.611.208.377.455.767.754 1.131-.611.481-1.365.845-2.275 1.105l.221-.286zm-4.329-2.47h.845v.702h-.845v-.702zm3.042 0v.702h-.845v-.702h.845zm4.797-.507a4.37 4.37 0 01-.611 1.261 5.712 5.712 0 01-.832-1.261h1.443zm2.327 0v-1.222h-3.237c.13-.325.247-.65.351-.988l-1.378-.312c-.299 1.092-.858 2.119-1.586 2.834v-.715h-2.119v-.442h2.301v-1.027h-2.301v-.663h-1.352v.663h-2.327v1.027h2.327v.442h-2.041v2.522h1.495a7.608 7.608 0 01-2.041 1.261c.26.234.663.663.858.962.559-.299 1.196-.78 1.729-1.3v1.235h1.352v-1.339c.507.338 1.079.741 1.391.988l.494-.637c.273.26.702.793.858 1.092.923-.325 1.716-.741 2.366-1.274a6.704 6.704 0 002.236 1.274c.182-.364.559-.923.858-1.196a6.215 6.215 0 01-2.171-1.014c.468-.598.819-1.313 1.079-2.171h.858z" fill="#666"/><path fill="#C4C4C4" d="M26 17h132v22H26z"/><path d="M72.174 24.563v2.067c0 1.287.312 1.703 1.768 1.703h1.547c1.04 0 1.456-.364 1.612-1.729-.403-.091-1.04-.312-1.326-.533-.052.819-.117.949-.442.949h-1.157c-.403 0-.481-.052-.481-.403v-2.054h1.833v1.287h1.599v-2.691h-4.823v-1.17h-1.586v1.17h-4.706v2.912h1.521v-1.508h1.794c-.208 1.534-.663 2.444-3.497 2.938.312.312.702.936.832 1.3 3.302-.715 4.017-2.08 4.251-4.238h1.261zm.13 7.813v-1.937h3.835v-1.391h-8.905v1.391h3.484v1.937h-4.849v1.404h11.375v-1.404h-4.94zm15.652-5.902l-.832.559c.234.169.481.364.728.572l-3.341.065c.234-.377.494-.793.728-1.196h2.717zm2.041-2.236v.923h-8.32v-.923h8.32zm-3.393 8.164v-1.001h4.004v-1.326h-4.004v-1.131l2.639-.078c.247.26.468.507.637.728l1.209-.845c-.546-.663-1.638-1.586-2.574-2.275h1.625v-.936h1.43v-2.704h-4.966v-.832h-1.586v.832h-4.849v2.704h1.43v.936h1.872c-.169.403-.377.832-.572 1.222l-1.846.026.065 1.378c1.079-.026 2.444-.065 3.9-.104v1.079h-3.731v1.326h3.731v1.001H80.13v1.365h11.518v-1.365h-5.044zm14.651-.962h1.274v.923h-1.274v-.923zm-2.496-4.875h-2.197c.182-.78.338-1.586.455-2.405h1.833v1.404h1.313v-1.066h.91c-.572 1.144-1.352 2.106-2.314 2.821v-.754zm-1.3 4.667h-1.053v-3.341h1.053v3.341zm5.07-2.964h-1.274v-.871h1.274v.871zm0 2.054h-1.274v-.923h1.274v.923zm3.679 2.041h-2.262v-.923h1.677v-1.118h-1.677v-.923h1.677v-1.131h-1.677v-.871h1.963v-1.274h-1.664c.169-.325.338-.663.494-1.014l-1.404-.299c-.091.39-.273.871-.455 1.313h-1.053a10.6 10.6 0 00.832-1.625h2.119v1.066h1.365v-2.366h-3.003c.091-.312.182-.624.26-.949l-1.456-.26c-.091.416-.208.819-.338 1.209h-2.639v-.442h-4.654v1.404h1.261c-.299 2.119-.793 4.082-1.703 5.382.273.338.676 1.118.819 1.469a6.77 6.77 0 00.468-.715v3.289h1.248v-1.014h2.353v-4.784c.286.299.611.689.754.884.091-.065.195-.143.286-.221v5.681h1.456v-.507h4.953v-1.261zm12.428-8.58c-.091 1.924-.195 2.691-.377 2.899-.104.13-.221.169-.39.156-.13 0-.351 0-.624-.013l.624-1.001a10.523 10.523 0 00-1.183-.65c.143-.455.247-.923.325-1.391h1.625zm-5.148 1.456c.455.143.949.338 1.43.546-.39.637-.975 1.209-1.872 1.638.312.247.715.754.871 1.092 1.066-.559 1.768-1.287 2.236-2.119.26.143.494.286.715.429.195.364.338.936.364 1.352.559.013 1.092 0 1.404-.052.364-.052.611-.169.858-.494.351-.416.481-1.625.611-4.563.013-.182.013-.572.013-.572h-6.448v1.287h1.95a9.345 9.345 0 01-.195.819c-.416-.156-.832-.312-1.222-.429l-.715 1.066zm1.703 3.328c.832.481 1.82 1.209 2.262 1.742l.962-.988c-.494-.559-1.495-1.222-2.327-1.651l-.897.897zm-2.483-6.175h-3.705v1.17h3.705v-1.17zm.39 1.742h-4.719v1.222h4.719v-1.222zm-.351 1.807h-3.783v1.183h3.783v-1.183zm-3.783 2.938h3.783v-1.157h-3.783v1.157zm2.509 3.354h-1.274v-1.495h1.274v1.495zm1.287-2.717h-3.835v4.433h1.274v-.507h2.561v-.637l1.053.637c.637-.767.871-2.002 1.001-3.159l-1.222-.312c-.117 1.001-.351 2.028-.832 2.678v-3.133zm3.835 3.185c-.234 0-.26-.039-.26-.403v-2.834h-1.43v2.847c0 1.287.247 1.716 1.469 1.716h1.066c.923 0 1.3-.429 1.443-2.132-.39-.104-1.001-.325-1.261-.559-.039 1.196-.091 1.365-.338 1.365h-.689zm1.456-2.535c.637 1.001 1.17 2.379 1.3 3.276l1.365-.559c-.182-.897-.728-2.223-1.417-3.211l-1.248.494z" fill="#666"/><path d="M220.013 144.588c0 .91-.161 1.708-.482 2.393-.322.686-.783 1.215-1.384 1.587-.597.373-1.282.559-2.057.559-.766 0-1.449-.184-2.05-.552-.601-.368-1.066-.893-1.397-1.575-.33-.685-.497-1.472-.501-2.361v-.457c0-.91.163-1.71.489-2.399.33-.694.793-1.225 1.39-1.594.601-.372 1.286-.558 2.057-.558.77 0 1.453.186 2.05.558.601.369 1.064.9 1.39 1.594.33.689.495 1.487.495 2.393v.412zm-1.93-.419c0-.969-.173-1.705-.52-2.209-.347-.503-.842-.755-1.485-.755-.639 0-1.132.25-1.479.749-.347.495-.523 1.223-.527 2.184v.45c0 .944.173 1.676.52 2.197.347.52.847.78 1.498.78.639 0 1.13-.249 1.473-.749.343-.503.516-1.235.52-2.196v-.451zM230.219 149h-1.904v-3.961h-3.714V149h-1.904v-9.242h1.904v3.745h3.714v-3.745h1.904V149zm8.53-4.005h-3.656v2.475h4.291V149h-6.196v-9.242h6.183v1.542h-4.278v2.203h3.656v1.492zm6.238-1.073l1.924-4.164h2.082l-3.035 5.89V149h-1.936v-3.352l-3.034-5.89h2.089l1.91 4.164zm10.416 3.174h-3.339l-.635 1.904h-2.025l3.44-9.242h1.765l3.46 9.242h-2.025l-.641-1.904zm-2.825-1.543h2.31l-1.161-3.459-1.149 3.459zm14.827 2.279c-.343.411-.828.73-1.454.959-.626.224-1.32.336-2.082.336-.8 0-1.502-.174-2.107-.521-.601-.351-1.067-.859-1.397-1.523-.326-.664-.493-1.445-.501-2.342v-.629c0-.922.154-1.72.463-2.393.313-.677.762-1.193 1.346-1.549.588-.359 1.276-.539 2.063-.539 1.096 0 1.953.262 2.571.787.617.52.983 1.28 1.098 2.279h-1.854c-.084-.529-.273-.916-.565-1.162-.288-.245-.685-.368-1.193-.368-.648 0-1.141.243-1.479.73-.339.487-.51 1.21-.514 2.171v.59c0 .969.184 1.701.552 2.196.368.496.908.743 1.619.743.715 0 1.225-.152 1.529-.457v-1.593h-1.733v-1.403h3.638v3.688zm10.44-3.244c0 .91-.161 1.708-.482 2.393-.322.686-.783 1.215-1.384 1.587-.597.373-1.282.559-2.057.559-.765 0-1.449-.184-2.05-.552-.601-.368-1.066-.893-1.396-1.575-.33-.685-.498-1.472-.502-2.361v-.457c0-.91.163-1.71.489-2.399.33-.694.793-1.225 1.39-1.594.601-.372 1.287-.558 2.057-.558s1.453.186 2.05.558c.601.369 1.064.9 1.39 1.594.33.689.495 1.487.495 2.393v.412zm-1.929-.419c0-.969-.174-1.705-.521-2.209-.347-.503-.842-.755-1.485-.755-.639 0-1.132.25-1.479.749-.347.495-.523 1.223-.527 2.184v.45c0 .944.173 1.676.52 2.197.347.52.847.78 1.498.78.639 0 1.13-.249 1.473-.749.343-.503.516-1.235.521-2.196v-.451z" fill="#25ADB4"/><path fill="#DDD" d="M178 109h132v22H178z"/><path d="M209.358 121.334l1.244-6.576h1.898L210.45 124h-1.917l-1.504-6.183-1.505 6.183h-1.917l-2.05-9.242h1.898l1.25 6.563 1.524-6.563h1.612l1.517 6.576zm8.314 2.793c-1.007 0-1.828-.309-2.462-.927-.631-.618-.946-1.441-.946-2.469v-.178c0-.69.133-1.305.4-1.847a2.912 2.912 0 011.13-1.257c.49-.296 1.049-.444 1.675-.444.94 0 1.678.296 2.216.889.541.592.812 1.432.812 2.52v.749h-4.373c.059.448.237.808.533 1.079.3.271.679.406 1.136.406.707 0 1.259-.256 1.657-.768l.901 1.009a2.777 2.777 0 01-1.117.914c-.47.216-.99.324-1.562.324zm-.209-5.637c-.364 0-.66.123-.889.368-.224.246-.368.597-.431 1.054h2.551v-.146c-.008-.406-.118-.719-.33-.939-.211-.225-.512-.337-.901-.337zm11.57 2.139c0 1.101-.234 1.96-.704 2.578-.47.613-1.126.92-1.968.92-.745 0-1.339-.286-1.784-.857l-.082.73h-1.65v-9.75h1.834v3.498c.423-.496.98-.743 1.669-.743.838 0 1.494.309 1.968.927.478.613.717 1.479.717 2.596v.101zm-1.834-.133c0-.694-.11-1.2-.33-1.517-.22-.322-.548-.482-.984-.482-.584 0-.986.239-1.206.717v2.71c.224.483.631.724 1.219.724.592 0 .982-.292 1.168-.876.089-.279.133-.705.133-1.276zm10.846-.188v-1.378h2.886v1.378h-2.886zm-4.446 0v-1.378h2.821v1.378h-2.821zm2.821-4.108v1.313h-2.821V116.2h2.821zm4.511 0v1.313h-2.886V116.2h2.886zm-2.886-1.482v-1.742h-1.625v1.742h-4.368v7.761h1.547v-.689h2.821v3.328h1.625v-3.328h2.886v.624h1.612v-7.696h-4.498zm11.843-1.027l-2.093-.026c.117.52.169 1.144.169 1.755 0 1.118-.13 4.537-.13 6.279 0 2.223 1.378 3.159 3.51 3.159 2.964 0 4.81-1.742 5.642-2.99l-1.183-1.43c-.936 1.417-2.301 2.652-4.446 2.652-1.014 0-1.794-.429-1.794-1.742 0-1.612.104-4.524.156-5.928.026-.52.091-1.183.169-1.729zm16.64 2.535c-.403 2.483-1.404 4.42-3.224 5.499.364.273.962.871 1.196 1.17 1.417-.988 2.405-2.418 3.055-4.277.572 1.82 1.521 3.315 3.12 4.264a6.927 6.927 0 011.209-1.183c-2.704-1.352-3.484-4.485-3.679-8.164h-3.575v1.456h2.262c.039.442.091.884.143 1.313l-.507-.078zm-3.224-.975c-.442-.611-1.391-1.417-2.171-1.963l-1.144.936c.767.572 1.69 1.43 2.093 2.054l1.222-1.027zm-.325 2.782h-3.003v1.417h1.495v2.743c-.572.442-1.222.871-1.781 1.196l.754 1.612c.715-.546 1.287-1.053 1.859-1.56.845 1.014 1.911 1.378 3.51 1.443 1.547.065 4.16.039 5.72-.039a8.097 8.097 0 01.481-1.56c-1.729.13-4.654.169-6.175.104-1.352-.052-2.327-.403-2.86-1.274v-4.082zm13.468-3.874l.065 1.677c.338-.052.793-.091 1.053-.104.598-.039 1.716-.078 2.236-.104-.299.611-.676 1.495-1.04 2.353-2.613.117-4.446 1.651-4.446 3.666 0 1.313.858 2.106 2.002 2.106.884 0 1.508-.364 2.028-1.144.455-.715 1.001-2.015 1.469-3.12 1.118.156 2.158.546 3.081 1.053-.429 1.183-1.339 2.418-3.302 3.263l1.378 1.131c1.742-.91 2.73-2.054 3.302-3.523.403.299.78.598 1.118.91l.754-1.807a19.57 19.57 0 00-1.391-.871c.13-.728.195-1.534.247-2.405l-1.703-.195c.039.39.039.91 0 1.417l-.039.442a11.697 11.697 0 00-2.821-.832c.468-1.105.962-2.236 1.3-2.795.104-.182.26-.351.442-.546l-1.04-.806a2.793 2.793 0 01-.884.182c-.611.052-1.989.117-2.73.117-.286 0-.728-.026-1.079-.065zm-.611 7.241c0-.819.819-1.703 2.275-1.924-.364.819-.715 1.638-1.053 2.119-.234.325-.416.455-.676.455-.299 0-.546-.221-.546-.65z" fill="#1BA3AA"/><path fill="#DDD" d="M178 86h132v22H178z"/><path d="M212.566 100.271c0 1.534.429 2.249 3.393 2.249 1.391 0 2.951-.13 4.03-.286l.052-1.768c-1.287.26-2.73.442-4.095.442-1.43 0-1.664-.286-1.664-1.092v-3.445c1.846-.377 3.601-.715 4.004-.806-.364.689-1.222 1.872-2.08 2.639l1.43.845c.936-.923 2.119-2.704 2.691-3.783.117-.234.312-.533.429-.715l-1.248-.962c-.247.13-.559.221-.923.299-.585.143-2.405.507-4.303.871v-1.534c0-.442.065-1.092.117-1.495h-1.937c.065.403.104 1.066.104 1.495v1.859c-1.287.234-2.431.429-3.042.507l.312 1.703c.546-.13 1.573-.338 2.73-.572v3.549zm17.173 1.443l1.092.897c.117-.104.273-.234.559-.39 1.456-.741 3.328-2.145 4.407-3.549l-1.001-1.43c-.871 1.261-2.158 2.288-3.211 2.743v-6.799c0-.585.078-1.092.091-1.131h-1.937c.013.039.104.533.104 1.118v7.579c0 .351-.052.715-.104.962zm-6.019-.195l1.586 1.053a7.622 7.622 0 002.314-3.731c.351-1.313.39-4.056.39-5.59 0-.546.078-1.118.091-1.183h-1.911c.078.325.117.676.117 1.196 0 1.573-.013 4.03-.377 5.148-.364 1.105-1.066 2.301-2.21 3.107zm25.337-8.177l-1.274-.819c-.351.091-.767.104-1.027.104h-6.006c-.429 0-1.17-.065-1.56-.104v1.833c.338-.026.962-.052 1.547-.052h6.058c-.169 1.105-.663 2.587-1.521 3.666-1.053 1.313-2.522 2.444-5.096 3.055l1.417 1.547c2.314-.741 4.043-2.028 5.226-3.588 1.079-1.443 1.651-3.458 1.95-4.732.065-.273.169-.65.286-.91zm13.065 1.313v4.693c-.715-.897-2.106-2.223-3.211-3.224.104-.507.156-.988.182-1.469h3.029zm-7.592 0h2.964c-.065 1.599-.507 3.523-2.964 4.797v-4.797zm9.126-1.508h-4.55v-2.158h-1.599v2.158h-4.524v10.01h1.547v-3.666c.377.286.858.832 1.079 1.144 1.417-.832 2.288-1.898 2.795-2.99.949.949 1.924 2.002 2.444 2.717l1.274-.988v1.95c0 .234-.078.299-.325.312-.247 0-1.118.013-1.885-.026.221.403.455 1.092.507 1.534 1.157 0 1.989-.026 2.522-.273.546-.247.715-.676.715-1.508v-8.216zm6.227 3.718h5.434v.806h-5.434v-.806zm0-2.067h5.434v.806h-5.434v-.806zm0-2.054h5.434v.806h-5.434v-.806zm5.46 8.814c-.494 0-.572-.052-.572-.468v-2.067h2.119v-7.631h-8.502v7.631h1.586c-.221 1.417-.78 2.288-3.445 2.782.299.325.715.962.858 1.378 3.211-.728 3.978-2.093 4.251-4.16h1.573v2.08c0 1.456.364 1.924 1.911 1.924h1.716c1.287 0 1.69-.533 1.859-2.587-.403-.104-1.092-.364-1.417-.611-.065 1.508-.143 1.729-.585 1.729h-1.352z" fill="#1BA3AA"/><path d="M200.645 73.996l40.126.004 2.457 4 2.457-4 40.126.005" stroke="#25ADB4"/></svg>
