<svg width="60" height="60" viewBox="0 0 60 60" fill="none" xmlns="http://www.w3.org/2000/svg"><rect width="60" height="60" rx="30" fill="#25ADB4" fill-opacity=".1"/><path fill-rule="evenodd" clip-rule="evenodd" d="M42.436 40.387l-4.413 4.405-2.592-2.588 1.544-1.542 1.048 1.046 2.869-2.862 1.544 1.541z" fill="#25ADB4"/><path fill-rule="evenodd" clip-rule="evenodd" d="M38.934 35.256c-3.418 0-6.19 2.766-6.19 6.177 0 3.412 2.772 6.178 6.19 6.178 3.418 0 6.189-2.766 6.189-6.178 0-3.411-2.771-6.177-6.19-6.177zm-8.374 6.177c0-4.616 3.75-8.357 8.374-8.357 4.624 0 8.373 3.741 8.373 8.357s-3.749 8.358-8.373 8.358c-4.625 0-8.374-3.742-8.374-8.358z" fill="#25ADB4"/><path fill-rule="evenodd" clip-rule="evenodd" d="M18 12h22.572v18.532h-2.184V14.18H20.184v32.704h9.51v2.18H18V12z" fill="#25ADB4"/><path fill-rule="evenodd" clip-rule="evenodd" d="M32.199 18.54h-5.825v-2.18h5.825v2.18z" fill="#25ADB4"/></svg>
