<svg width="335" height="164" viewBox="0 0 335 164" fill="none" xmlns="http://www.w3.org/2000/svg">
<rect width="335" height="164" fill="#F5F5F5"/>
<g clip-path="url(#clip0)">
<path d="M277.999 83.5158C277.999 83.5158 277.428 78.674 277.285 74.6951C277.19 72.394 277.19 69.6136 277.19 69.0383C277.285 67.5522 277.428 64.4362 277.428 64.4362C277.428 64.4362 277.19 62.9501 277.047 62.3749C276.523 60.745 275.999 57.7728 278.618 57.0537C280.809 56.4784 280.523 60.1697 279.952 62.9981C279.856 63.4295 280.38 66.2579 280.618 68.511C280.904 71.0997 280.713 71.7708 281.047 74.6951C281.38 77.4276 281.952 80.1122 282.761 82.7009L277.999 83.5158Z" fill="#E2B9A0"/>
<path d="M282.094 77.14C282.094 77.14 280.999 78.7699 279.428 78.8657C277.856 78.9616 277.285 77.4755 276.904 78.0508C276.618 78.4822 276.999 87.3509 278.809 88.1658C280.618 88.9808 282.618 86.7756 282.618 86.7756L283.332 83.8993C283.523 83.9472 282.38 77.4755 282.094 77.14Z" fill="#5C9C53"/>
<path d="M288.906 136.776C281.906 136.057 274.906 138.022 273.334 141.378C271.715 144.733 276.144 148.041 283.048 148.808C290.048 149.623 297.048 147.562 298.62 144.206C300.334 140.946 295.906 137.591 288.906 136.776Z" fill="#96BFC1"/>
<path d="M288.952 141.474C288.381 141.905 284.476 142.864 284.809 145.117C285.143 147.37 292.857 144.829 292.714 142.384C292.666 140.515 289.571 141.042 288.952 141.474Z" fill="#B25B44"/>
<path d="M281.001 138.262C280.429 138.693 276.525 139.652 276.858 141.905C277.191 144.158 284.906 141.617 284.763 139.173C284.668 137.303 281.572 137.83 281.001 138.262Z" fill="#B25B44"/>
<path d="M278.953 111.8C278.953 111.8 280.286 138.597 281.477 139.173C282.667 139.748 284.715 139.316 284.715 139.316L286.191 111.943L278.953 111.8Z" fill="#5F4C42"/>
<path d="M286.238 111.943C286.238 111.943 288.381 141.282 289.572 142.097C290.762 142.912 292.81 142.241 292.81 142.241L294.048 112.087L286.238 111.943Z" fill="#5F4C42"/>
<path d="M288.142 84.7143C288.142 84.7143 294.428 85.3854 294.618 90.0355C294.857 94.7335 294.857 111.656 294.857 112.231C294.857 112.902 292.571 115.731 285.714 115.347C279.142 114.964 278.285 113.142 278.285 111.991C278.285 110.601 278.714 103.698 278.952 97.466C279.095 93.1036 278.047 88.6453 278.428 87.0154C278.999 84.5705 285.428 83.8993 288.142 84.7143Z" fill="#5C9C53"/>
<path d="M284.238 81.7421C284.238 81.7421 284.238 86.8716 284.81 87.303C285.381 87.6865 288.476 87.1592 288.476 85.3855C288.476 83.6117 288.381 81.3107 288.381 81.3107L284.238 81.7421Z" fill="#C7A48D"/>
<path d="M281.001 74.2157C281.001 74.2157 280.572 84.5225 283.858 85.0499C286.382 85.4334 289.763 84.3308 289.81 80.8792C289.858 77.4276 291.001 72.4899 288.62 72.4899C286.334 72.442 280.715 72.0106 281.001 74.2157Z" fill="#E3BAA1"/>
<path d="M291.476 73.6404C291.476 73.6404 291.715 77.0441 291.619 78.6261C291.524 80.208 289.762 81.8379 289.191 81.2147C288.619 80.5915 288.81 74.9827 288.81 74.9827L291.476 73.6404Z" fill="#745B4C"/>
<path d="M285.429 70.5244C285.429 70.5244 281.953 70.5244 280.715 72.6817C279.62 74.6951 280.144 76.9003 281.001 76.7565C281.525 76.6126 282.001 76.4688 282.477 76.2291C283.144 75.8936 283.715 75.5101 284.334 75.0307C284.334 75.0307 284.191 75.6059 283.906 76.6126C285.144 76.2771 286.191 75.5101 286.906 74.4554C287.001 74.2157 287.715 80.0163 289.048 78.7699C290.382 77.5235 292.525 75.4142 291.096 72.2502C289.62 69.1822 285.429 70.5244 285.429 70.5244Z" fill="#745B4C"/>
<path d="M288.762 79.2013C288.762 79.2013 289.429 77.4276 290.524 78.1467C291.62 78.8658 290.762 81.8379 289.429 81.4065C288.096 80.9271 288.762 79.2013 288.762 79.2013Z" fill="#E3BAA1"/>
<path d="M276.81 60.3614C276.81 60.3614 278.191 57.6769 279.667 57.9645C281.048 58.2521 280.715 61.512 280.048 62.279C279.381 63.046 277.762 63.9089 277.381 63.9089C277.096 64.0048 276.429 61.0326 276.81 60.3614Z" fill="#E2B9A0"/>
<path d="M292.81 80.1122C291.715 79.6808 291.858 79.2014 291.572 79.7287C291.191 80.256 290.858 83.2282 290.239 85.2896C289.715 87.303 289.287 91.953 292.096 91.953C294.906 91.953 295.763 89.652 295.953 87.6386C296.144 85.6251 296.906 80.3998 296.334 80.1601C295.81 79.9684 293.906 80.5436 292.81 80.1122Z" fill="#5C9C53"/>
<path d="M291.906 68.7507C291.906 68.7507 292.001 74.4075 292.144 75.3662C292.286 76.325 291.477 80.0642 291.763 81.3586C292.048 82.6529 295.572 82.9405 296.048 81.6462C296.525 80.3519 296.048 76.9482 295.81 74.8389C295.572 72.394 295.096 69.9492 294.429 67.5522C294.144 66.7373 294.667 62.8063 291.763 62.2311C290.191 61.9434 289.239 62.3749 289.572 64.2924C289.906 66.21 291.525 68.6069 291.906 68.7507Z" fill="#E2B9A0"/>
</g>
<path fill-rule="evenodd" clip-rule="evenodd" d="M306.667 30.821L313 22.0004H288.904C285.615 21.9824 282.359 22.6257 279.335 23.8904C276.388 25.1181 273.702 26.8738 271.415 29.067C269.131 31.2611 267.293 33.8585 265.997 36.7219C264.658 39.6776 263.977 42.8787 264.001 46.1119C263.957 50.2534 265.192 54.3116 267.543 57.756C269.894 61.2005 273.253 63.8711 277.181 65.4189C279.877 66.4872 282.763 67.0242 285.673 66.9992C288.94 67.0126 292.175 66.3693 295.177 65.1091C298.124 63.8827 300.811 62.1269 303.097 59.9326C305.387 57.7315 307.226 55.123 308.515 52.2472C309.849 49.3005 310.529 46.1109 310.511 42.8884C310.538 40.0467 309.966 37.23 308.832 34.6139C308.243 33.2811 307.518 32.0103 306.667 30.821ZM300.754 43.3824C300.768 41.718 300.456 40.0663 299.835 38.5164C299.261 37.0645 298.399 35.7393 297.301 34.6119C296.193 33.4971 294.868 32.6115 293.404 32.0076C291.841 31.3593 290.158 31.0326 288.461 31.0477C286.486 31.0375 284.531 31.4388 282.727 32.2251C280.975 32.9815 279.384 34.0536 278.038 35.3856C276.702 36.7161 275.637 38.2833 274.901 40.0036C274.141 41.7583 273.753 43.6454 273.76 45.5509C273.746 47.2154 274.058 48.8671 274.679 50.4169C275.262 51.8808 276.134 53.2179 277.246 54.3519C278.353 55.4747 279.678 56.3704 281.143 56.9867C282.715 57.6418 284.409 57.9687 286.117 57.9466C288.082 57.9602 290.027 57.5586 291.819 56.7692C293.559 56.0086 295.139 54.9367 296.477 53.6087C297.818 52.2708 298.883 50.6925 299.614 48.9602C300.372 47.1943 300.759 45.2976 300.754 43.3824Z" fill="black"/>
<rect x="20" y="92" width="181" height="25" fill="white"/>
<path d="M39.1035 104.588C39.1035 105.498 38.9427 106.296 38.6211 106.981C38.2995 107.667 37.8382 108.196 37.2373 108.568C36.6406 108.941 35.9551 109.127 35.1807 109.127C34.4147 109.127 33.7313 108.943 33.1304 108.575C32.5295 108.207 32.064 107.682 31.7339 107C31.4038 106.315 31.2367 105.528 31.2324 104.639V104.182C31.2324 103.272 31.3954 102.472 31.7212 101.783C32.0513 101.089 32.5147 100.558 33.1113 100.189C33.7123 99.8171 34.3978 99.6309 35.168 99.6309C35.9382 99.6309 36.6216 99.8171 37.2183 100.189C37.8192 100.558 38.2826 101.089 38.6084 101.783C38.9385 102.472 39.1035 103.27 39.1035 104.176V104.588ZM37.1738 104.169C37.1738 103.2 37.0003 102.464 36.6533 101.96C36.3063 101.457 35.8112 101.205 35.168 101.205C34.529 101.205 34.036 101.455 33.689 101.954C33.342 102.449 33.1664 103.177 33.1621 104.138V104.588C33.1621 105.532 33.3356 106.264 33.6826 106.785C34.0296 107.305 34.529 107.565 35.1807 107.565C35.8197 107.565 36.3106 107.316 36.6533 106.816C36.9961 106.313 37.1696 105.581 37.1738 104.62V104.169ZM49.3093 109H47.405V105.039H43.6916V109H41.7873V99.7578H43.6916V103.503H47.405V99.7578H49.3093V109ZM57.8393 104.995H54.183V107.47H58.474V109H52.2787V99.7578H58.4613V101.3H54.183V103.503H57.8393V104.995ZM64.0778 103.922L66.0011 99.7578H68.0831L65.0489 105.648V109H63.1129V105.648L60.0787 99.7578H62.1671L64.0778 103.922ZM74.493 107.096H71.1541L70.5194 109H68.4944L71.9349 99.7578H73.6995L77.159 109H75.1341L74.493 107.096ZM71.6683 105.553H73.9788L72.8172 102.094L71.6683 105.553ZM86.4951 107.832C86.1524 108.243 85.6678 108.562 85.0415 108.791C84.4152 109.015 83.7212 109.127 82.9595 109.127C82.1597 109.127 81.4572 108.953 80.8521 108.606C80.2512 108.255 79.7857 107.747 79.4556 107.083C79.1297 106.419 78.9626 105.638 78.9541 104.741V104.112C78.9541 103.19 79.1086 102.392 79.4175 101.719C79.7306 101.042 80.1792 100.526 80.7632 100.17C81.3514 99.8107 82.0391 99.6309 82.8262 99.6309C83.9222 99.6309 84.7791 99.8932 85.397 100.418C86.0148 100.938 86.3809 101.698 86.4951 102.697H84.6416C84.557 102.168 84.3687 101.781 84.0767 101.535C83.7889 101.29 83.3911 101.167 82.8833 101.167C82.2359 101.167 81.7429 101.41 81.4043 101.897C81.0658 102.384 80.8944 103.107 80.8902 104.068V104.658C80.8902 105.627 81.0742 106.359 81.4424 106.854C81.8106 107.35 82.3501 107.597 83.0611 107.597C83.7762 107.597 84.2861 107.445 84.5908 107.14V105.547H82.8579V104.144H86.4951V107.832ZM96.9358 104.588C96.9358 105.498 96.7749 106.296 96.4533 106.981C96.1317 107.667 95.6705 108.196 95.0695 108.568C94.4729 108.941 93.7873 109.127 93.0129 109.127C92.247 109.127 91.5635 108.943 90.9626 108.575C90.3617 108.207 89.8962 107.682 89.5661 107C89.236 106.315 89.0689 105.528 89.0647 104.639V104.182C89.0647 103.272 89.2276 102.472 89.5534 101.783C89.8835 101.089 90.3469 100.558 90.9436 100.189C91.5445 99.8171 92.23 99.6309 93.0002 99.6309C93.7704 99.6309 94.4538 99.8171 95.0505 100.189C95.6514 100.558 96.1148 101.089 96.4406 101.783C96.7707 102.472 96.9358 103.27 96.9358 104.176V104.588ZM95.0061 104.169C95.0061 103.2 94.8326 102.464 94.4856 101.96C94.1386 101.457 93.6434 101.205 93.0002 101.205C92.3612 101.205 91.8682 101.455 91.5212 101.954C91.1742 102.449 90.9986 103.177 90.9944 104.138V104.588C90.9944 105.532 91.1679 106.264 91.5149 106.785C91.8619 107.305 92.3612 107.565 93.0129 107.565C93.6519 107.565 94.1428 107.316 94.4856 106.816C94.8283 106.313 95.0018 105.581 95.0061 104.62V104.169ZM107.413 104.06C107.413 106.842 108.57 108.922 109.974 110.3L111.209 109.754C109.909 108.35 108.882 106.556 108.882 104.06C108.882 101.564 109.909 99.77 111.209 98.366L109.974 97.82C108.57 99.198 107.413 101.278 107.413 104.06ZM121.986 98.587H120.14C120.192 98.925 120.231 99.341 120.27 99.9C120.283 100.186 120.296 100.498 120.309 100.836H116.006C115.564 100.836 114.94 100.797 114.563 100.745V102.474C115.018 102.448 115.577 102.422 116.045 102.422H119.594C118.554 103.904 116.409 105.737 113.874 106.933L115.07 108.285C117.124 107.193 119.23 105.386 120.374 103.891C120.4 105.23 120.4 106.53 120.4 107.401C120.4 107.778 120.27 107.947 119.945 107.947C119.503 107.947 118.801 107.895 118.216 107.791L118.359 109.481C119.1 109.533 119.828 109.559 120.621 109.559C121.609 109.559 122.09 109.078 122.077 108.246C122.051 106.491 121.999 104.32 121.96 102.422H123.637C123.988 102.422 124.482 102.448 124.898 102.461V100.732C124.586 100.784 123.975 100.836 123.546 100.836H121.921C121.921 100.498 121.908 100.186 121.908 99.9C121.908 99.497 121.934 98.99 121.986 98.587ZM127.953 105.074L129.513 106.686C129.747 106.348 130.059 105.893 130.345 105.477C130.878 104.775 131.788 103.488 132.308 102.838C132.672 102.37 132.945 102.344 133.374 102.76C133.842 103.241 134.986 104.502 135.753 105.399C136.52 106.296 137.612 107.635 138.496 108.714L139.926 107.18C138.925 106.114 137.599 104.684 136.715 103.748C135.935 102.903 134.947 101.863 134.076 101.044C133.062 100.095 132.295 100.238 131.515 101.148C130.631 102.214 129.617 103.488 129.019 104.086C128.629 104.489 128.343 104.762 127.953 105.074ZM146.348 98.392L144.437 98.821C144.58 99.068 144.71 99.38 144.879 99.965C144.97 100.29 145.113 100.81 145.282 101.421C144.554 101.564 143.995 101.655 143.787 101.694C143.28 101.772 142.825 101.824 142.318 101.876L142.773 103.631C143.241 103.514 144.385 103.267 145.711 102.994C146.296 105.178 146.959 107.726 147.193 108.519C147.323 108.961 147.414 109.481 147.479 109.845L149.416 109.39C149.286 109.065 149.091 108.441 149 108.168C148.74 107.297 148.064 104.84 147.453 102.63C149.273 102.266 151.002 101.915 151.392 101.85C150.989 102.565 149.949 103.943 148.974 104.749L150.651 105.542C151.717 104.346 153.303 102.084 153.914 100.758L152.718 99.9C152.523 99.991 152.224 100.095 151.951 100.134C151.327 100.277 149.039 100.719 147.037 101.096C146.868 100.498 146.712 99.965 146.595 99.549C146.478 99.133 146.4 98.717 146.348 98.392ZM165.705 98.145L164.639 98.587C164.964 99.042 165.354 99.731 165.601 100.264H159.335C158.88 100.264 158.217 100.238 157.723 100.186V101.993C158.087 101.967 158.789 101.941 159.335 101.941H165.185V107.323H159.179C158.594 107.323 158.009 107.284 157.567 107.245V109.104C157.983 109.065 158.724 109.026 159.231 109.026H165.172C165.172 109.273 165.172 109.494 165.159 109.702H167.044C167.005 109.312 166.979 108.623 166.979 108.168V101.434C166.979 101.057 167.005 100.537 167.018 100.238C166.797 100.251 166.264 100.264 165.874 100.264H165.822L166.719 99.887C166.485 99.406 166.03 98.613 165.705 98.145ZM167.46 97.729L166.381 98.171C166.745 98.639 167.135 99.38 167.421 99.913L168.5 99.445C168.253 98.99 167.785 98.197 167.46 97.729ZM171.49 102.981V105.022C171.971 104.983 172.842 104.957 173.583 104.957H180.564C181.11 104.957 181.773 105.009 182.085 105.022V102.981C181.747 103.007 181.175 103.059 180.564 103.059H173.583C172.907 103.059 171.958 103.02 171.49 102.981ZM188.975 104.06C188.975 101.278 187.818 99.198 186.414 97.82L185.179 98.366C186.479 99.77 187.506 101.564 187.506 104.06C187.506 106.556 186.479 108.35 185.179 109.754L186.414 110.3C187.818 108.922 188.975 106.842 188.975 104.06Z" fill="#666666"/>
<path d="M25.668 44.444H23.874C23.913 44.678 23.965 45.315 23.965 45.588C23.965 45.809 23.965 46.186 23.952 46.641C23.692 46.654 23.432 46.667 23.198 46.667C22.73 46.667 22.171 46.654 21.404 46.563L21.43 48.136C21.872 48.188 22.379 48.201 23.25 48.201C23.458 48.201 23.692 48.188 23.939 48.175C23.939 48.539 23.939 48.903 23.939 49.267C23.939 49.566 23.939 49.878 23.952 50.19C22.353 50.879 21.053 52.062 21.053 53.193C21.053 54.571 22.834 55.663 24.095 55.663C24.953 55.663 25.525 55.234 25.525 53.622C25.525 53.18 25.499 52.166 25.473 51.139C26.266 50.905 27.111 50.775 27.917 50.775C29.048 50.775 29.828 51.295 29.828 52.179C29.828 53.128 28.996 53.648 27.943 53.843C27.488 53.921 26.929 53.934 26.344 53.934L26.942 55.611C27.475 55.572 28.047 55.533 28.645 55.403C30.712 54.883 31.518 53.726 31.518 52.192C31.518 50.398 29.945 49.358 27.943 49.358C27.228 49.358 26.331 49.475 25.447 49.696C25.447 49.527 25.447 49.371 25.447 49.215C25.447 48.838 25.447 48.435 25.46 48.045C26.305 47.941 27.202 47.811 27.943 47.642L27.904 46.03C27.228 46.225 26.37 46.394 25.512 46.498C25.525 46.173 25.538 45.861 25.551 45.575C25.577 45.237 25.629 44.678 25.668 44.444ZM29.373 45.848L28.658 47.109C29.464 47.499 31.167 48.474 31.791 49.007L32.571 47.681C31.882 47.187 30.374 46.329 29.373 45.848ZM22.652 53.128C22.652 52.673 23.185 52.14 23.978 51.711C24.004 52.413 24.017 53.011 24.017 53.336C24.017 53.778 23.835 53.882 23.601 53.882C23.263 53.882 22.652 53.531 22.652 53.128ZM40.67 45.237H38.278V44.08H36.783V45.237H34.404V46.576H40.67V45.237ZM38.733 52.439V54.155H36.302V52.439H38.733ZM34.872 56.144H36.302V55.494H38.733V56.092H40.241V51.1H34.872V56.144ZM38.616 46.615C38.512 47.213 38.278 48.032 38.083 48.578L39.136 48.851H35.73L36.952 48.565C36.9 48.032 36.692 47.252 36.419 46.667L35.158 46.927C35.379 47.525 35.574 48.331 35.613 48.851H34.131V50.255H40.813V48.851H39.305C39.526 48.344 39.799 47.642 40.072 46.927L38.616 46.615ZM45.116 44.678L44.882 44.73H41.216V56.131H42.724V46.186H44.297C43.985 47.174 43.569 48.5 43.192 49.423C44.232 50.437 44.518 51.373 44.518 52.075C44.518 52.517 44.44 52.816 44.206 52.959C44.076 53.024 43.907 53.063 43.725 53.063C43.53 53.076 43.283 53.063 42.997 53.05C43.244 53.479 43.374 54.142 43.374 54.558C43.738 54.571 44.115 54.571 44.414 54.532C44.739 54.48 45.051 54.376 45.298 54.207C45.792 53.856 46 53.219 46 52.27C46 51.412 45.805 50.398 44.7 49.228C45.22 48.123 45.792 46.628 46.247 45.38L45.116 44.678ZM56.231 49.67L55.672 50.008C55.88 50.151 56.101 50.32 56.309 50.502C55.438 50.528 54.567 50.554 53.748 50.58C53.956 50.294 54.177 49.982 54.385 49.67H56.231ZM57.427 45.835V46.641H50.667V45.835H57.427ZM55.568 54.597V53.7H58.688V52.478H55.568V51.672C56.231 51.646 56.894 51.62 57.557 51.594C57.791 51.815 57.999 52.036 58.155 52.231L59.442 51.438C58.987 50.918 58.155 50.229 57.388 49.67H59.338V48.461H50.667V48.344V47.889H58.987V44.587H49.12V48.344C49.12 50.411 49.016 53.336 47.729 55.338C48.106 55.481 48.808 55.871 49.107 56.131C50.225 54.389 50.563 51.789 50.641 49.67H52.669C52.487 49.995 52.292 50.333 52.11 50.632L50.745 50.658L50.81 51.867C51.733 51.828 52.851 51.789 54.073 51.737V52.478H51.005V53.7H54.073V54.597H50.134V55.819H59.611V54.597H55.568ZM67.268 44.574L65.552 44.431C65.526 44.899 65.435 45.406 65.292 45.926C65.084 45.926 64.863 45.926 64.668 45.926C64.005 45.926 63.043 45.874 62.38 45.77V47.291C63.095 47.343 64.044 47.369 64.577 47.369C64.629 47.369 64.681 47.369 64.746 47.369C64.161 48.539 63.238 49.696 61.873 50.957L63.264 51.997C63.706 51.425 64.083 50.957 64.473 50.567C64.967 50.086 65.773 49.67 66.501 49.67C66.865 49.67 67.216 49.787 67.411 50.112C65.929 50.879 64.369 51.919 64.369 53.583C64.369 55.26 65.877 55.754 67.918 55.754C69.14 55.754 70.739 55.65 71.597 55.533L71.649 53.856C70.505 54.077 69.062 54.22 67.957 54.22C66.683 54.22 66.072 54.025 66.072 53.31C66.072 52.66 66.592 52.153 67.567 51.594C67.554 52.166 67.541 52.79 67.502 53.18H69.062C69.049 52.582 69.023 51.62 69.01 50.892C69.803 50.528 70.544 50.242 71.129 50.008C71.571 49.839 72.26 49.579 72.676 49.462L72.026 47.954C71.545 48.201 71.09 48.409 70.583 48.63C70.05 48.864 69.504 49.085 68.828 49.397C68.542 48.734 67.892 48.396 67.099 48.396C66.67 48.396 65.968 48.5 65.63 48.656C65.89 48.279 66.15 47.811 66.371 47.33C67.775 47.291 69.374 47.187 70.609 47.005L70.622 45.497C69.478 45.692 68.178 45.809 66.943 45.874C67.112 45.328 67.203 44.899 67.268 44.574ZM77.707 44.028C77.044 45.887 75.926 47.733 74.756 48.903C75.016 49.267 75.432 50.125 75.575 50.502C75.874 50.19 76.173 49.839 76.459 49.462V56.105H77.928V47.174C78.409 46.303 78.838 45.393 79.176 44.496L77.707 44.028ZM84.701 51.49V52.361H81.191V51.49H84.701ZM81.191 54.441V53.518H84.701V54.441H81.191ZM79.709 56.183H81.191V55.702H84.701V56.118H86.261V50.229H79.709V56.183ZM81.997 46.823H83.752V48.084H81.997V46.823ZM85.273 48.084V46.823H86.898V45.497H85.273V44.093H83.752V45.497H81.997V44.093H80.489V45.497H78.968V46.823H80.489V48.084H78.5V49.475H87.223V48.084H85.273ZM92.943 44.561L91.162 44.483C91.162 44.834 91.123 45.354 91.058 45.848C90.876 47.187 90.694 48.799 90.694 50.008C90.694 50.879 90.785 51.672 90.863 52.179L92.462 52.075C92.384 51.464 92.371 51.048 92.397 50.697C92.462 48.981 93.801 46.68 95.335 46.68C96.427 46.68 97.103 47.798 97.103 49.8C97.103 52.946 95.062 53.895 92.176 54.337L93.164 55.845C96.609 55.221 98.858 53.466 98.858 49.787C98.858 46.927 97.454 45.159 95.647 45.159C94.178 45.159 93.047 46.251 92.423 47.265C92.501 46.537 92.761 45.198 92.943 44.561ZM106.97 53.466C106.97 53.141 107.282 52.842 107.776 52.842C108.478 52.842 108.959 53.388 109.037 54.233C108.803 54.259 108.556 54.272 108.283 54.272C107.503 54.272 106.97 53.947 106.97 53.466ZM104.76 45.094L104.812 46.784C105.111 46.745 105.527 46.706 105.878 46.68C106.567 46.641 108.361 46.563 109.024 46.55C108.387 47.109 107.035 48.201 106.307 48.799C105.54 49.436 103.967 50.762 103.044 51.503L104.227 52.725C105.618 51.139 106.918 50.086 108.907 50.086C110.441 50.086 111.611 50.879 111.611 52.049C111.611 52.842 111.247 53.44 110.532 53.817C110.35 52.582 109.375 51.594 107.763 51.594C106.385 51.594 105.436 52.569 105.436 53.622C105.436 54.922 106.801 55.754 108.608 55.754C111.754 55.754 113.314 54.129 113.314 52.075C113.314 50.177 111.637 48.799 109.427 48.799C109.011 48.799 108.621 48.838 108.192 48.942C109.011 48.292 110.376 47.148 111.078 46.654C111.377 46.433 111.689 46.251 111.988 46.056L111.143 44.899C110.987 44.951 110.688 44.99 110.155 45.042C109.414 45.107 106.632 45.159 105.943 45.159C105.579 45.159 105.124 45.146 104.76 45.094ZM118.865 55.897L120.256 54.701C119.606 53.895 118.345 52.608 117.422 51.854L116.07 53.024C116.967 53.804 118.072 54.922 118.865 55.897ZM135.518 44.574L133.802 44.431C133.776 44.899 133.685 45.406 133.542 45.926C133.334 45.926 133.113 45.926 132.918 45.926C132.255 45.926 131.293 45.874 130.63 45.77V47.291C131.345 47.343 132.294 47.369 132.827 47.369C132.879 47.369 132.931 47.369 132.996 47.369C132.411 48.539 131.488 49.696 130.123 50.957L131.514 51.997C131.956 51.425 132.333 50.957 132.723 50.567C133.217 50.086 134.023 49.67 134.751 49.67C135.115 49.67 135.466 49.787 135.661 50.112C134.179 50.879 132.619 51.919 132.619 53.583C132.619 55.26 134.127 55.754 136.168 55.754C137.39 55.754 138.989 55.65 139.847 55.533L139.899 53.856C138.755 54.077 137.312 54.22 136.207 54.22C134.933 54.22 134.322 54.025 134.322 53.31C134.322 52.66 134.842 52.153 135.817 51.594C135.804 52.166 135.791 52.79 135.752 53.18H137.312C137.299 52.582 137.273 51.62 137.26 50.892C138.053 50.528 138.794 50.242 139.379 50.008C139.821 49.839 140.51 49.579 140.926 49.462L140.276 47.954C139.795 48.201 139.34 48.409 138.833 48.63C138.3 48.864 137.754 49.085 137.078 49.397C136.792 48.734 136.142 48.396 135.349 48.396C134.92 48.396 134.218 48.5 133.88 48.656C134.14 48.279 134.4 47.811 134.621 47.33C136.025 47.291 137.624 47.187 138.859 47.005L138.872 45.497C137.728 45.692 136.428 45.809 135.193 45.874C135.362 45.328 135.453 44.899 135.518 44.574ZM151.183 52.062C150.702 52.569 150.104 52.985 149.415 53.336C148.739 52.985 148.193 52.569 147.751 52.062H151.183ZM152.483 50.788L152.21 50.84H148.895C149.064 50.632 149.22 50.424 149.376 50.216L148.011 49.943C148.947 48.864 149.09 47.577 149.09 46.537H150.273V48.838C150.273 48.968 150.234 49.007 150.078 49.007C149.935 49.007 149.428 49.007 148.973 48.994C149.155 49.371 149.35 49.943 149.402 50.346C150.182 50.346 150.78 50.333 151.235 50.125C151.677 49.904 151.781 49.527 151.781 48.877V46.537H155.122V45.12H150.143V44.002H148.557V45.12H143.617V46.537H147.647C147.634 47.538 147.426 48.838 145.84 49.774C146.178 50.008 146.711 50.489 146.945 50.814C146.191 51.516 145.099 52.166 143.63 52.66C143.955 52.894 144.41 53.44 144.605 53.804C145.359 53.505 146.022 53.167 146.607 52.803C146.971 53.232 147.374 53.622 147.816 53.96C146.477 54.389 144.917 54.636 143.253 54.766C143.526 55.104 143.864 55.767 143.981 56.157C145.905 55.936 147.751 55.546 149.337 54.883C150.754 55.559 152.496 55.949 154.602 56.118C154.797 55.689 155.174 55.026 155.499 54.662C153.796 54.584 152.301 54.363 151.053 53.986C152.067 53.336 152.899 52.504 153.484 51.464L152.483 50.788ZM145.281 46.966C144.943 47.746 144.176 48.63 143.37 49.15C143.656 49.345 144.15 49.761 144.436 50.047C145.333 49.41 146.191 48.37 146.724 47.356L145.281 46.966ZM152.145 47.603C152.873 48.37 153.757 49.436 154.121 50.138L155.408 49.345C154.992 48.656 154.082 47.642 153.341 46.914L152.145 47.603ZM160.556 44.457L160.309 45.965C161.856 46.225 164.287 46.511 165.652 46.615L165.86 45.094C164.508 45.003 162.012 44.73 160.556 44.457ZM166.315 48.591L165.366 47.512C165.223 47.564 164.872 47.629 164.625 47.655C163.546 47.798 160.595 47.928 159.984 47.928C159.503 47.941 159.035 47.915 158.736 47.889L158.892 49.683C159.165 49.644 159.555 49.579 160.01 49.54C160.751 49.475 162.311 49.332 163.221 49.306C162.038 50.554 159.373 53.206 158.71 53.882C158.359 54.22 158.047 54.493 157.813 54.688L159.347 55.767C160.244 54.623 161.219 53.557 161.661 53.102C161.973 52.79 162.246 52.582 162.519 52.582C162.779 52.582 163.065 52.751 163.208 53.206C163.299 53.531 163.455 54.142 163.585 54.532C163.91 55.377 164.573 55.65 165.808 55.65C166.484 55.65 167.823 55.559 168.356 55.455L168.46 53.752C167.81 53.882 166.913 53.986 165.912 53.986C165.405 53.986 165.119 53.778 165.002 53.375C164.885 53.037 164.742 52.543 164.625 52.192C164.456 51.711 164.222 51.425 163.845 51.308C163.702 51.256 163.468 51.204 163.351 51.217C163.663 50.879 164.872 49.761 165.47 49.254C165.704 49.059 165.977 48.825 166.315 48.591ZM170.426 46.056L170.595 47.837C172.103 47.512 174.755 47.226 175.977 47.096C175.106 47.759 174.053 49.241 174.053 51.113C174.053 53.921 176.627 55.39 179.344 55.572L179.955 53.791C177.758 53.674 175.756 52.894 175.756 50.762C175.756 49.215 176.926 47.525 178.499 47.109C179.188 46.953 180.306 46.953 181.008 46.94L180.995 45.276C180.085 45.302 178.655 45.393 177.316 45.497C174.937 45.705 172.792 45.9 171.713 45.991C171.453 46.017 170.946 46.043 170.426 46.056ZM186.533 45.705L184.531 45.679C184.609 46.082 184.635 46.641 184.635 47.005C184.635 47.798 184.648 49.319 184.778 50.515C185.142 53.999 186.377 55.286 187.807 55.286C188.847 55.286 189.666 54.493 190.524 52.231L189.224 50.645C188.977 51.685 188.457 53.206 187.846 53.206C187.027 53.206 186.637 51.919 186.455 50.047C186.377 49.111 186.364 48.136 186.377 47.291C186.377 46.927 186.442 46.173 186.533 45.705ZM193.033 46.004L191.382 46.537C192.799 48.149 193.488 51.308 193.696 53.401L195.399 52.738C195.256 50.749 194.268 47.499 193.033 46.004ZM206.345 45.627L204.824 44.288C204.616 44.6 204.2 45.016 203.823 45.393C202.952 46.238 201.171 47.681 200.144 48.513C198.844 49.605 198.74 50.294 200.04 51.399C201.223 52.413 203.134 54.038 203.927 54.857C204.317 55.247 204.694 55.663 205.058 56.066L206.579 54.675C205.253 53.388 202.783 51.438 201.808 50.619C201.106 50.008 201.093 49.865 201.782 49.267C202.653 48.526 204.369 47.2 205.214 46.524C205.513 46.277 205.942 45.939 206.345 45.627ZM212.962 51.776C211.818 51.776 210.869 52.725 210.869 53.882C210.869 55.039 211.818 55.988 212.962 55.988C214.132 55.988 215.068 55.039 215.068 53.882C215.068 52.725 214.132 51.776 212.962 51.776ZM212.962 55.052C212.338 55.052 211.805 54.532 211.805 53.882C211.805 53.232 212.338 52.712 212.962 52.712C213.612 52.712 214.132 53.232 214.132 53.882C214.132 54.532 213.612 55.052 212.962 55.052Z" fill="#666666"/>
<path d="M25.668 124.444H23.874C23.913 124.678 23.965 125.315 23.965 125.588C23.965 125.809 23.965 126.186 23.952 126.641C23.692 126.654 23.432 126.667 23.198 126.667C22.73 126.667 22.171 126.654 21.404 126.563L21.43 128.136C21.872 128.188 22.379 128.201 23.25 128.201C23.458 128.201 23.692 128.188 23.939 128.175C23.939 128.539 23.939 128.903 23.939 129.267C23.939 129.566 23.939 129.878 23.952 130.19C22.353 130.879 21.053 132.062 21.053 133.193C21.053 134.571 22.834 135.663 24.095 135.663C24.953 135.663 25.525 135.234 25.525 133.622C25.525 133.18 25.499 132.166 25.473 131.139C26.266 130.905 27.111 130.775 27.917 130.775C29.048 130.775 29.828 131.295 29.828 132.179C29.828 133.128 28.996 133.648 27.943 133.843C27.488 133.921 26.929 133.934 26.344 133.934L26.942 135.611C27.475 135.572 28.047 135.533 28.645 135.403C30.712 134.883 31.518 133.726 31.518 132.192C31.518 130.398 29.945 129.358 27.943 129.358C27.228 129.358 26.331 129.475 25.447 129.696C25.447 129.527 25.447 129.371 25.447 129.215C25.447 128.838 25.447 128.435 25.46 128.045C26.305 127.941 27.202 127.811 27.943 127.642L27.904 126.03C27.228 126.225 26.37 126.394 25.512 126.498C25.525 126.173 25.538 125.861 25.551 125.575C25.577 125.237 25.629 124.678 25.668 124.444ZM29.373 125.848L28.658 127.109C29.464 127.499 31.167 128.474 31.791 129.007L32.571 127.681C31.882 127.187 30.374 126.329 29.373 125.848ZM22.652 133.128C22.652 132.673 23.185 132.14 23.978 131.711C24.004 132.413 24.017 133.011 24.017 133.336C24.017 133.778 23.835 133.882 23.601 133.882C23.263 133.882 22.652 133.531 22.652 133.128ZM40.67 125.237H38.278V124.08H36.783V125.237H34.404V126.576H40.67V125.237ZM38.733 132.439V134.155H36.302V132.439H38.733ZM34.872 136.144H36.302V135.494H38.733V136.092H40.241V131.1H34.872V136.144ZM38.616 126.615C38.512 127.213 38.278 128.032 38.083 128.578L39.136 128.851H35.73L36.952 128.565C36.9 128.032 36.692 127.252 36.419 126.667L35.158 126.927C35.379 127.525 35.574 128.331 35.613 128.851H34.131V130.255H40.813V128.851H39.305C39.526 128.344 39.799 127.642 40.072 126.927L38.616 126.615ZM45.116 124.678L44.882 124.73H41.216V136.131H42.724V126.186H44.297C43.985 127.174 43.569 128.5 43.192 129.423C44.232 130.437 44.518 131.373 44.518 132.075C44.518 132.517 44.44 132.816 44.206 132.959C44.076 133.024 43.907 133.063 43.725 133.063C43.53 133.076 43.283 133.063 42.997 133.05C43.244 133.479 43.374 134.142 43.374 134.558C43.738 134.571 44.115 134.571 44.414 134.532C44.739 134.48 45.051 134.376 45.298 134.207C45.792 133.856 46 133.219 46 132.27C46 131.412 45.805 130.398 44.7 129.228C45.22 128.123 45.792 126.628 46.247 125.38L45.116 124.678ZM56.231 129.67L55.672 130.008C55.88 130.151 56.101 130.32 56.309 130.502C55.438 130.528 54.567 130.554 53.748 130.58C53.956 130.294 54.177 129.982 54.385 129.67H56.231ZM57.427 125.835V126.641H50.667V125.835H57.427ZM55.568 134.597V133.7H58.688V132.478H55.568V131.672C56.231 131.646 56.894 131.62 57.557 131.594C57.791 131.815 57.999 132.036 58.155 132.231L59.442 131.438C58.987 130.918 58.155 130.229 57.388 129.67H59.338V128.461H50.667V128.344V127.889H58.987V124.587H49.12V128.344C49.12 130.411 49.016 133.336 47.729 135.338C48.106 135.481 48.808 135.871 49.107 136.131C50.225 134.389 50.563 131.789 50.641 129.67H52.669C52.487 129.995 52.292 130.333 52.11 130.632L50.745 130.658L50.81 131.867C51.733 131.828 52.851 131.789 54.073 131.737V132.478H51.005V133.7H54.073V134.597H50.134V135.819H59.611V134.597H55.568ZM67.021 125.9H71.935V127.161H73.3V124.587H65.708V127.239H67.021V125.9ZM67.671 126.212C67.593 127.681 67.346 128.422 65.448 128.851C65.708 129.111 66.059 129.618 66.189 129.943C68.529 129.345 68.958 128.188 69.075 126.212H67.671ZM65.292 129.436L64.239 129.735V127.863H65.422V126.446H64.239V124.002H62.835V126.446H61.47V127.863H62.835V130.112C62.25 130.255 61.704 130.398 61.262 130.489L61.6 131.971C61.977 131.867 62.406 131.75 62.835 131.62V134.493C62.835 134.662 62.77 134.714 62.614 134.714C62.458 134.727 62.003 134.727 61.535 134.701C61.717 135.117 61.886 135.754 61.925 136.131C62.783 136.144 63.329 136.092 63.732 135.845C64.122 135.598 64.239 135.208 64.239 134.493V131.204C64.655 131.087 65.071 130.957 65.487 130.827L65.292 129.436ZM73.326 132.075V130.697H70.193V129.462C70.414 129.592 70.726 129.644 71.168 129.644H72.195C73.053 129.644 73.404 129.293 73.534 127.928C73.17 127.863 72.598 127.655 72.338 127.447C72.312 128.305 72.26 128.422 72.026 128.422H71.402C71.168 128.422 71.116 128.396 71.116 128.071V126.199H69.738V128.084C69.738 128.76 69.816 129.176 70.128 129.41H68.659V130.697H65.578V132.075H67.827C67.099 133.128 65.981 134.051 64.785 134.545C65.123 134.831 65.552 135.377 65.773 135.728C66.878 135.156 67.892 134.233 68.659 133.141V136.118H70.193V133.154C70.895 134.155 71.766 135.052 72.676 135.611C72.91 135.247 73.378 134.701 73.716 134.428C72.715 133.921 71.714 133.024 71.012 132.075H73.326ZM79.423 124.691L77.33 124.665C77.447 125.185 77.499 125.809 77.499 126.42C77.499 127.538 77.369 130.957 77.369 132.699C77.369 134.922 78.747 135.858 80.879 135.858C83.843 135.858 85.689 134.116 86.521 132.868L85.338 131.438C84.402 132.855 83.037 134.09 80.892 134.09C79.878 134.09 79.098 133.661 79.098 132.348C79.098 130.736 79.202 127.824 79.254 126.42C79.28 125.9 79.345 125.237 79.423 124.691ZM100.301 130.424C100.301 127.59 98.273 125.354 95.049 125.354C91.682 125.354 89.082 127.915 89.082 130.918C89.082 133.115 90.278 134.701 91.721 134.701C93.138 134.701 94.256 133.089 95.036 130.463C95.413 129.241 95.634 128.045 95.816 126.94C97.571 127.239 98.546 128.578 98.546 130.372C98.546 132.27 97.246 133.466 95.582 133.856C95.231 133.934 94.867 134.012 94.373 134.064L95.348 135.611C98.624 135.104 100.301 133.167 100.301 130.424ZM90.746 130.749C90.746 129.319 91.903 127.421 94.048 126.979C93.905 128.058 93.658 129.163 93.359 130.125C92.826 131.88 92.319 132.699 91.773 132.699C91.266 132.699 90.746 132.062 90.746 130.749ZM109.245 128.994V127.642C109.518 127.252 109.778 126.849 109.999 126.446H114.042V124.86H102.771V126.446H107.958C106.749 128.435 104.721 130.45 102.355 131.555C102.693 131.906 103.174 132.543 103.421 132.959C104.981 132.153 106.372 131.022 107.555 129.761V136.105H109.245V129.371C110.649 130.45 112.417 131.932 113.223 132.894L114.536 131.711C113.6 130.684 111.598 129.189 110.207 128.188L109.245 128.994ZM121.556 130.879V129.917H123.116V130.372C123.116 130.528 123.116 130.71 123.103 130.879H121.556ZM121.556 127.915H123.116V128.864H121.556V127.915ZM126.093 127.915V128.864H124.65V127.915H126.093ZM126.093 130.879H124.637C124.65 130.71 124.65 130.541 124.65 130.385V129.917H126.093V130.879ZM127.588 132.01V126.784H124.65V126.004H127.913V124.652H120.022L120.087 124.483L118.631 124.028C118.033 125.874 116.993 127.72 115.901 128.903C116.161 129.293 116.603 130.125 116.746 130.502C116.967 130.255 117.188 129.982 117.409 129.67V136.105H118.891V127.265C119.294 126.472 119.658 125.653 119.957 124.847V126.004H123.116V126.784H120.126V132.01H122.96C122.843 132.465 122.661 132.881 122.336 133.271C121.803 132.959 121.361 132.608 121.01 132.179L119.671 132.647C120.1 133.232 120.633 133.739 121.218 134.155C120.685 134.454 119.983 134.688 119.112 134.87C119.411 135.182 119.866 135.793 120.048 136.144C121.114 135.819 121.959 135.416 122.596 134.948C123.922 135.533 125.508 135.884 127.393 136.04C127.588 135.611 127.991 134.948 128.329 134.597C126.548 134.506 124.975 134.272 123.701 133.856C124.091 133.284 124.351 132.66 124.494 132.01H127.588ZM135.791 125.77C135.869 125.991 135.947 126.264 136.051 126.563C134.673 126.654 133.009 126.615 131.059 126.381L131.085 128.045C133.308 128.227 135.089 128.214 136.636 128.097C137 128.968 137.468 129.826 137.858 130.45C137.455 130.424 136.597 130.346 135.96 130.294L135.83 131.672C136.922 131.763 138.56 131.932 139.288 132.075L140.094 130.905C139.86 130.645 139.613 130.359 139.392 130.034C139.067 129.566 138.612 128.76 138.235 127.915C139.054 127.798 139.886 127.642 140.549 127.447L140.341 125.809C139.522 126.056 138.612 126.264 137.676 126.407C137.455 125.757 137.26 125.055 137.13 124.366L135.375 124.574C135.544 125.003 135.687 125.471 135.791 125.77ZM133.659 130.814L132.034 130.437C131.592 131.321 131.345 132.062 131.345 132.855C131.345 134.727 133.022 135.754 135.674 135.767C137.26 135.767 138.43 135.598 139.171 135.455L139.262 133.817C138.339 133.999 137.195 134.129 135.778 134.129C133.997 134.129 133.022 133.661 133.022 132.569C133.022 131.997 133.243 131.425 133.659 130.814ZM149.168 124.574L147.452 124.431C147.426 124.899 147.335 125.406 147.192 125.926C146.984 125.926 146.763 125.926 146.568 125.926C145.905 125.926 144.943 125.874 144.28 125.77V127.291C144.995 127.343 145.944 127.369 146.477 127.369C146.529 127.369 146.581 127.369 146.646 127.369C146.061 128.539 145.138 129.696 143.773 130.957L145.164 131.997C145.606 131.425 145.983 130.957 146.373 130.567C146.867 130.086 147.673 129.67 148.401 129.67C148.765 129.67 149.116 129.787 149.311 130.112C147.829 130.879 146.269 131.919 146.269 133.583C146.269 135.26 147.777 135.754 149.818 135.754C151.04 135.754 152.639 135.65 153.497 135.533L153.549 133.856C152.405 134.077 150.962 134.22 149.857 134.22C148.583 134.22 147.972 134.025 147.972 133.31C147.972 132.66 148.492 132.153 149.467 131.594C149.454 132.166 149.441 132.79 149.402 133.18H150.962C150.949 132.582 150.923 131.62 150.91 130.892C151.703 130.528 152.444 130.242 153.029 130.008C153.471 129.839 154.16 129.579 154.576 129.462L153.926 127.954C153.445 128.201 152.99 128.409 152.483 128.63C151.95 128.864 151.404 129.085 150.728 129.397C150.442 128.734 149.792 128.396 148.999 128.396C148.57 128.396 147.868 128.5 147.53 128.656C147.79 128.279 148.05 127.811 148.271 127.33C149.675 127.291 151.274 127.187 152.509 127.005L152.522 125.497C151.378 125.692 150.078 125.809 148.843 125.874C149.012 125.328 149.103 124.899 149.168 124.574ZM162.805 128.383C163.052 128.643 163.312 129.007 163.429 129.267C163.52 129.228 163.611 129.176 163.702 129.137C163.546 130.06 163.234 130.996 162.805 131.672V128.383ZM160.803 131.594V130.515H161.544V131.594H160.803ZM159.048 130.515H159.776V131.594H159.035C159.048 131.295 159.048 131.009 159.048 130.736V130.515ZM160.413 126.368C160.296 126.693 160.179 127.031 160.049 127.317H158.931C159.087 127.018 159.23 126.693 159.373 126.368H160.413ZM160.803 128.448H161.544V129.423H160.803V128.448ZM159.048 128.448H159.776V129.423H159.048V128.448ZM169.097 132.608H166.887V131.438H168.837V130.138H166.887V128.968H165.418V130.138H164.781C164.859 129.865 164.911 129.579 164.963 129.306L163.806 129.072C165.132 128.344 165.626 127.265 165.847 125.913H167.355C167.303 126.992 167.238 127.434 167.121 127.577C167.03 127.694 166.926 127.72 166.77 127.72C166.588 127.72 166.237 127.707 165.834 127.668C166.029 127.993 166.159 128.513 166.185 128.916C166.705 128.929 167.212 128.916 167.498 128.877C167.823 128.825 168.07 128.721 168.291 128.448C168.564 128.11 168.681 127.213 168.746 125.146C168.759 124.977 168.772 124.652 168.772 124.652H163V125.913H164.456C164.274 126.862 163.884 127.616 162.805 128.11V127.317H161.349C161.622 126.784 161.882 126.186 162.064 125.679L161.18 125.133L160.985 125.198H159.802C159.906 124.899 159.997 124.587 160.075 124.275L158.71 123.989C158.359 125.51 157.67 127.031 156.786 127.98C157.059 128.162 157.54 128.552 157.8 128.812V130.736C157.8 132.192 157.735 134.129 156.864 135.468C157.15 135.598 157.709 135.949 157.93 136.157C158.528 135.221 158.827 133.96 158.957 132.738H161.544V134.61C161.544 134.779 161.479 134.831 161.323 134.831C161.167 134.831 160.66 134.831 160.14 134.805C160.335 135.156 160.543 135.741 160.582 136.118C161.375 136.118 161.908 136.079 162.311 135.858C162.701 135.637 162.805 135.247 162.805 134.636V131.893C163.13 132.036 163.598 132.283 163.819 132.439C164.014 132.153 164.183 131.815 164.339 131.438H165.418V132.608H163.013V133.934H165.418V136.079H166.887V133.934H169.097V132.608ZM174.492 125.328C173.972 124.899 172.932 124.353 172.139 124.054L171.294 125.198C172.113 125.549 173.127 126.147 173.595 126.602L174.492 125.328ZM173.777 128.786C173.257 128.344 172.178 127.837 171.372 127.551L170.553 128.708C171.372 129.059 172.399 129.631 172.893 130.073L173.777 128.786ZM173.205 130.84C172.477 132.361 171.554 133.999 170.904 134.987L172.256 135.949C172.984 134.675 173.738 133.18 174.388 131.802L173.205 130.84ZM178.613 127.434H180.225V129.787H178.574C178.6 129.358 178.613 128.942 178.613 128.513V127.434ZM182.708 131.243V129.787H181.733V125.978H178.613V124.002H177.079V125.978H174.908V127.434H177.079V128.5C177.079 128.929 177.066 129.358 177.04 129.787H174.271V131.243H176.806C176.429 132.699 175.558 134.038 173.582 135.078C173.998 135.312 174.596 135.845 174.869 136.17C176.858 135.078 177.807 133.596 178.236 131.997C178.977 133.882 180.082 135.325 181.772 136.157C182.006 135.728 182.487 135.117 182.851 134.805C181.265 134.155 180.16 132.842 179.536 131.243H182.708ZM188.623 124.691L186.53 124.665C186.647 125.185 186.699 125.809 186.699 126.42C186.699 127.538 186.569 130.957 186.569 132.699C186.569 134.922 187.947 135.858 190.079 135.858C193.043 135.858 194.889 134.116 195.721 132.868L194.538 131.438C193.602 132.855 192.237 134.09 190.092 134.09C189.078 134.09 188.298 133.661 188.298 132.348C188.298 130.736 188.402 127.824 188.454 126.42C188.48 125.9 188.545 125.237 188.623 124.691ZM197.979 126.056L198.148 127.837C199.656 127.512 202.308 127.226 203.53 127.096C202.659 127.759 201.606 129.241 201.606 131.113C201.606 133.921 204.18 135.39 206.897 135.572L207.508 133.791C205.311 133.674 203.309 132.894 203.309 130.762C203.309 129.215 204.479 127.525 206.052 127.109C206.741 126.953 207.859 126.953 208.561 126.94L208.548 125.276C207.638 125.302 206.208 125.393 204.869 125.497C202.49 125.705 200.345 125.9 199.266 125.991C199.006 126.017 198.499 126.043 197.979 126.056ZM214.086 125.705L212.084 125.679C212.162 126.082 212.188 126.641 212.188 127.005C212.188 127.798 212.201 129.319 212.331 130.515C212.695 133.999 213.93 135.286 215.36 135.286C216.4 135.286 217.219 134.493 218.077 132.231L216.777 130.645C216.53 131.685 216.01 133.206 215.399 133.206C214.58 133.206 214.19 131.919 214.008 130.047C213.93 129.111 213.917 128.136 213.93 127.291C213.93 126.927 213.995 126.173 214.086 125.705ZM220.586 126.004L218.935 126.537C220.352 128.149 221.041 131.308 221.249 133.401L222.952 132.738C222.809 130.749 221.821 127.499 220.586 126.004ZM226.254 128.396L226.345 129.93C228.308 130.047 230.401 130.047 232 129.943C232.208 130.385 232.455 130.84 232.728 131.295C232.338 131.256 231.636 131.191 231.09 131.139L230.96 132.374C231.909 132.478 233.313 132.647 234.041 132.79L234.834 131.594C234.6 131.373 234.418 131.178 234.249 130.931C234.015 130.593 233.794 130.19 233.573 129.774C234.353 129.67 235.055 129.527 235.653 129.371L235.393 127.837C234.756 128.006 233.976 128.227 232.91 128.357C232.832 128.149 232.754 127.954 232.689 127.772C232.624 127.577 232.559 127.369 232.494 127.161C233.352 127.044 234.171 126.875 234.886 126.68L234.678 125.185C233.846 125.445 233.014 125.627 232.117 125.744C232.026 125.302 231.948 124.847 231.883 124.379L230.141 124.574C230.297 125.029 230.427 125.445 230.557 125.861C229.361 125.9 228.035 125.848 226.488 125.666L226.579 127.161C228.217 127.317 229.738 127.343 230.96 127.278C231.038 127.499 231.116 127.746 231.22 128.045C231.272 128.188 231.324 128.344 231.389 128.5C229.946 128.591 228.191 128.578 226.254 128.396ZM228.75 131.412L227.138 131.1C226.839 131.724 226.553 132.361 226.579 133.193C226.605 135.052 228.217 135.819 230.817 135.819C231.883 135.819 233.066 135.728 233.976 135.572L234.067 133.921C233.144 134.103 232.039 134.207 230.804 134.207C229.088 134.207 228.178 133.817 228.178 132.855C228.178 132.296 228.438 131.841 228.75 131.412ZM241.698 133.531C241.698 133.089 242.205 132.725 243.128 132.725C243.492 132.725 243.843 132.764 244.194 132.816C244.207 133.05 244.207 133.232 244.207 133.375C244.207 134.129 243.752 134.324 243.063 134.324C242.166 134.324 241.698 134.025 241.698 133.531ZM245.767 124.483H244.012C244.064 124.73 244.09 125.133 244.09 125.38C244.09 125.536 244.09 125.744 244.09 125.991C243.921 125.991 243.752 125.991 243.583 125.991C242.79 125.991 241.308 125.861 240.372 125.705L240.411 127.187C241.269 127.304 242.777 127.421 243.596 127.421C243.752 127.421 243.908 127.421 244.077 127.421C244.064 127.863 244.064 128.331 244.064 128.76C243.856 128.76 243.648 128.76 243.44 128.76C242.751 128.76 241.152 128.669 240.307 128.513L240.32 130.047C241.178 130.151 242.66 130.216 243.414 130.216C243.648 130.216 243.869 130.216 244.09 130.216C244.103 130.606 244.116 131.022 244.142 131.425C243.882 131.399 243.609 131.386 243.336 131.386C241.334 131.386 240.125 132.309 240.125 133.622C240.125 135 241.217 135.793 243.297 135.793C245.013 135.793 245.858 134.935 245.858 133.83C245.858 133.687 245.858 133.531 245.845 133.349C246.885 133.817 247.769 134.506 248.471 135.156L249.407 133.7C248.653 133.076 247.405 132.205 245.767 131.737C245.728 131.217 245.702 130.684 245.676 130.19C246.924 130.151 247.938 130.06 249.108 129.93L249.121 128.396C248.068 128.539 246.963 128.643 245.65 128.708C245.65 128.305 245.65 127.824 245.65 127.369C246.911 127.304 248.094 127.187 248.952 127.083L248.965 125.588C247.821 125.783 246.742 125.887 245.676 125.939C245.676 125.731 245.676 125.536 245.689 125.406C245.702 125.068 245.728 124.743 245.767 124.483ZM260.145 124.522H258.26C258.299 124.678 258.351 125.12 258.39 125.653C258.403 125.757 258.403 125.887 258.416 126.056C256.648 126.082 254.282 126.134 252.8 126.134L252.839 127.707C254.438 127.616 256.466 127.538 258.429 127.512C258.442 127.798 258.442 128.097 258.442 128.383C258.273 128.357 258.104 128.344 257.922 128.344C256.505 128.344 255.322 129.306 255.322 130.775C255.322 132.361 256.557 133.167 257.558 133.167C257.766 133.167 257.961 133.141 258.143 133.102C257.428 133.882 256.284 134.311 254.971 134.584L256.362 135.962C259.534 135.078 260.522 132.92 260.522 131.23C260.522 130.554 260.366 129.943 260.054 129.449C260.054 128.877 260.041 128.162 260.041 127.499C261.809 127.499 263.018 127.525 263.798 127.564L263.811 126.03C263.135 126.017 261.354 126.043 260.041 126.043C260.054 125.887 260.054 125.744 260.054 125.64C260.067 125.432 260.119 124.73 260.145 124.522ZM256.882 130.749C256.882 130.06 257.376 129.709 257.883 129.709C258.234 129.709 258.546 129.865 258.728 130.164C258.91 131.308 258.429 131.724 257.883 131.724C257.363 131.724 256.882 131.347 256.882 130.749Z" fill="#666666"/>
<path d="M214.162 107.31C214.162 106.816 214.656 106.504 215.397 106.504C215.748 106.504 216.099 106.556 216.437 106.647C216.437 106.738 216.437 106.816 216.437 106.881C216.437 107.648 216.164 108.064 215.371 108.064C214.682 108.064 214.162 107.843 214.162 107.31ZM218.023 98.821H216.164C216.216 99.081 216.255 99.484 216.255 99.679C216.255 99.952 216.268 100.485 216.268 101.122C215.969 101.135 215.657 101.135 215.358 101.135C214.578 101.135 213.824 101.096 213.083 101.018V102.565C213.85 102.617 214.591 102.643 215.358 102.643C215.657 102.643 215.969 102.643 216.281 102.63C216.294 103.553 216.346 104.502 216.372 105.308C216.112 105.269 215.826 105.256 215.527 105.256C213.759 105.256 212.641 106.166 212.641 107.479C212.641 108.844 213.759 109.598 215.553 109.598C217.308 109.598 218.01 108.714 218.088 107.466C218.608 107.817 219.128 108.272 219.674 108.779L220.571 107.414C219.947 106.842 219.128 106.179 218.049 105.737C217.997 104.853 217.932 103.813 217.906 102.552C218.621 102.5 219.297 102.422 219.921 102.331V100.706C219.297 100.836 218.621 100.94 217.906 101.005C217.919 100.433 217.932 99.952 217.945 99.666C217.958 99.38 217.984 99.068 218.023 98.821ZM211.679 98.964L209.885 98.808C209.872 99.224 209.807 99.718 209.755 100.082C209.612 101.083 209.222 103.54 209.222 105.503C209.222 107.271 209.469 108.753 209.742 109.663L211.211 109.546C211.198 109.364 211.185 109.143 211.185 109.013C211.185 108.87 211.211 108.584 211.25 108.402C211.406 107.7 211.822 106.374 212.186 105.308L211.393 104.658C211.198 105.1 210.977 105.542 210.808 105.997C210.769 105.737 210.756 105.412 210.756 105.152C210.756 103.852 211.185 100.992 211.38 100.121C211.419 99.887 211.575 99.224 211.679 98.964Z" fill="#666666"/>
<defs>
<clipPath id="clip0">
<rect x="273" y="49" width="26" height="100" fill="white"/>
</clipPath>
</defs>
</svg>
